<?xml version="1.0" standalone="no"?>
<!DOCTYPE svg PUBLIC "-//W3C//DTD SVG 20010904//EN"
 "http://www.w3.org/TR/2001/REC-SVG-20010904/DTD/svg10.dtd">
<svg version="1.0" xmlns="http://www.w3.org/2000/svg"
 width="500.000000pt" height="500.000000pt" viewBox="0 0 500.000000 500.000000"
 preserveAspectRatio="xMidYMid meet">
<metadata>
Created by potrace 1.14, written by Peter Selinger 2001-2017
</metadata>
<g transform="translate(0.000000,500.000000) scale(0.100000,-0.100000)"
fill="#000000" stroke="none">
<path d="M1066 4778 c121 -123 248 -252 282 -288 61 -64 62 -65 62 -35 0 28
-48 241 -101 453 l-23 92 -220 0 -220 0 220 -222z"/>
<path d="M1314 4983 c6 -22 75 -306 86 -353 4 -19 19 -78 33 -130 14 -52 60
-229 102 -393 74 -292 75 -301 69 -385 -6 -86 -6 -89 49 -257 31 -93 99 -305
153 -470 167 -517 315 -969 326 -998 11 -29 75 -87 195 -177 40 -30 71 -56 69
-58 -10 -9 -144 77 -337 216 -32 23 -62 42 -65 42 -3 0 12 -33 35 -74 30 -55
37 -76 28 -85 -8 -8 -4 -11 18 -11 17 0 72 -14 124 -32 78 -27 97 -38 110 -62
38 -69 95 -146 161 -216 39 -41 68 -68 65 -60 -4 8 1 6 9 -4 15 -18 16 -13 16
75 l1 94 109 73 c89 60 129 80 217 108 103 33 111 34 177 24 86 -13 98 -7 16
9 -56 11 -60 14 -54 34 4 12 17 38 30 57 13 19 24 42 24 51 0 9 11 24 25 33
13 9 80 59 147 111 68 52 127 95 133 95 5 0 18 -19 28 -43 22 -54 70 -113 108
-132 40 -21 37 -11 -5 14 -32 20 -86 87 -86 107 0 5 19 21 43 36 l42 27 20
-25 c12 -14 35 -27 55 -30 33 -5 39 -2 78 41 23 26 42 54 42 62 0 8 4 11 10 8
6 -3 7 1 4 9 -3 9 -2 16 3 16 10 0 58 -35 91 -66 l22 -21 -25 -39 -25 -39 31
35 c31 35 89 144 89 168 0 7 -14 12 -38 12 -21 0 -47 6 -58 14 -18 14 -15 16
42 43 58 26 62 30 67 69 4 22 4 72 0 110 l-6 70 64 59 c35 32 56 53 47 46 -9
-7 -22 -10 -28 -6 -5 3 -10 1 -10 -6 0 -7 -26 -36 -57 -66 -51 -47 -327 -277
-432 -358 -21 -16 -81 -64 -132 -106 -253 -204 -767 -579 -796 -579 -9 0 -13
17 -14 58 0 31 -2 260 -5 507 -2 248 -8 555 -14 683 -13 269 -21 240 93 352
88 87 107 104 107 93 0 -4 4 -1 10 7 8 12 10 12 16 -3 3 -9 10 -14 15 -11 5 3
6 10 3 16 -4 7 -2 8 4 4 16 -9 481 450 528 522 20 29 54 99 76 155 50 128 193
511 223 597 64 186 87 256 89 267 1 7 5 16 9 19 11 11 8 26 -3 19 -7 -4 -9 2
-4 19 5 23 3 26 -18 26 -16 0 -28 -8 -34 -21 -8 -17 -33 -27 -117 -48 -59 -15
-109 -25 -111 -23 -3 2 4 22 14 45 l19 42 -96 3 c-53 1 -99 -1 -103 -5 -4 -4
-17 -60 -29 -123 -12 -63 -31 -153 -42 -200 -97 -413 -113 -473 -140 -511 -10
-15 -19 -31 -19 -35 0 -4 -38 -65 -85 -135 -47 -69 -85 -132 -85 -138 0 -6
-69 -82 -152 -167 l-153 -156 -11 73 c-11 72 -24 687 -24 1162 l0 237 -455 0
-455 0 6 -27 c3 -16 10 -44 14 -63 5 -19 18 -95 30 -167 11 -73 23 -141 27
-150 4 -13 3 -15 -5 -8 -6 6 -22 49 -36 97 -14 48 -34 104 -45 125 -10 21 -25
67 -32 102 l-12 64 -89 -5 c-79 -5 -90 -4 -99 13 -13 25 -63 26 -55 2z m1391
-1351 c-16 -11 -17 -33 -2 -46 12 -9 12 -28 2 -120 l-13 -108 -49 -50 c-26
-27 -61 -59 -76 -70 l-29 -21 4 119 c3 105 6 123 26 152 13 17 20 32 15 32 -4
0 21 29 57 64 36 36 67 62 70 60 2 -3 0 -8 -5 -12z m345 -1656 c0 -2 -8 -10
-17 -17 -16 -13 -17 -12 -4 4 13 16 21 21 21 13z"/>
<path d="M581 4840 c0 -8 4 -22 9 -30 12 -18 12 -2 0 25 -6 13 -9 15 -9 5z"/>
<path d="M606 4765 c4 -16 7 -35 8 -42 0 -6 -37 -53 -84 -103 -101 -110 -104
-114 -96 -146 9 -35 27 -30 19 6 -4 20 -2 30 7 30 7 0 10 -7 6 -15 -4 -13 -2
-14 14 -5 16 9 18 15 10 30 -7 12 -7 21 0 25 10 6 14 -1 11 -20 -1 -5 14 7 34
27 19 20 35 41 34 45 -4 26 2 43 14 37 6 -4 9 -4 5 1 -4 4 4 21 17 37 28 34
29 40 9 88 -13 32 -14 33 -8 5z m-64 -184 c-12 -10 -19 -21 -15 -25 3 -3 1 -6
-5 -6 -15 0 -15 5 0 30 7 11 19 20 27 20 10 0 7 -6 -7 -19z"/>
<path d="M4430 4756 c1 -12 77 -96 87 -96 4 0 17 -12 29 -27 12 -15 23 -22 27
-16 4 6 -27 42 -68 80 -41 38 -75 65 -75 59z"/>
<path d="M4480 4664 c0 -5 14 -22 30 -37 30 -28 42 -25 18 4 -20 23 -48 42
-48 33z"/>
<path d="M606 4643 c-6 -14 -5 -15 5 -6 7 7 10 15 7 18 -3 3 -9 -2 -12 -12z"/>
<path d="M4570 4605 c-7 -9 -10 -18 -6 -22 3 -3 6 -2 6 4 0 5 7 10 14 10 12 0
13 -5 4 -21 -10 -19 -10 -20 5 -7 22 17 44 1 50 -37 l4 -27 2 27 c0 16 -10 39
-25 57 -29 35 -36 37 -54 16z"/>
<path d="M4875 3438 c-103 -37 -104 -37 -550 -401 -152 -124 -232 -195 -205
-181 8 4 29 18 47 31 17 14 34 20 37 14 3 -5 0 -12 -6 -15 -7 -2 30 -4 82 -3
113 2 108 23 44 -188 -67 -220 -80 -257 -149 -400 -46 -95 -74 -141 -103 -167
-42 -38 -253 -167 -316 -193 -42 -18 -49 -30 -9 -14 56 21 168 72 173 78 8 11
84 53 102 56 12 3 15 -1 11 -12 -4 -10 -8 -11 -13 -3 -5 8 -11 6 -20 -5 -7 -8
-11 -18 -8 -20 7 -8 183 44 186 55 6 18 26 11 49 -17 l23 -28 -6 26 c-4 20 4
37 35 77 141 178 228 314 356 557 26 50 51 94 56 99 5 6 9 -47 9 -129 0 -76 2
-136 5 -134 2 3 5 63 6 134 1 72 4 159 8 195 l7 65 6 -86 c7 -83 9 -90 105
-280 54 -106 113 -225 130 -264 l31 -70 0 320 c0 176 -3 347 -8 380 -4 33 -3
64 1 69 5 6 9 115 9 243 l0 233 -32 0 c-18 -1 -60 -10 -93 -22z"/>
<path d="M0 3264 c0 -155 1 -159 24 -179 23 -19 24 -23 15 -105 -13 -136 -20
-171 -30 -165 -5 4 -9 -126 -9 -336 0 -188 2 -340 4 -338 2 2 57 94 123 204
66 110 136 224 156 253 34 53 35 56 42 189 15 274 20 171 17 -340 -2 -287 1
-647 8 -799 26 -646 37 -1167 29 -1333 -4 -93 -7 -204 -7 -245 2 -146 17 129
22 400 2 140 7 257 10 260 3 3 27 -11 53 -30 61 -45 197 -132 265 -169 62 -34
148 -46 418 -56 229 -10 245 -13 312 -66 38 -29 55 -49 51 -59 -28 -72 -45
-131 -50 -171 -5 -45 -3 -51 43 -113 l48 -66 438 0 438 0 0 44 c0 41 2 44 23
37 45 -13 107 -52 107 -66 0 -13 68 -15 520 -15 l519 0 21 46 c11 26 20 57 20
69 0 32 -36 131 -60 164 -11 16 -20 33 -20 38 0 11 78 87 140 135 l45 36 230
12 c127 6 259 16 295 20 106 15 215 77 424 243 19 16 39 26 44 23 6 -3 13
-125 17 -271 4 -146 10 -264 13 -261 4 5 -11 773 -23 1126 -2 80 -8 315 -11
523 -3 207 -10 377 -15 377 -5 0 -9 -20 -9 -44 0 -36 -7 -53 -39 -93 -55 -70
-93 -126 -334 -485 -127 -191 -214 -312 -219 -305 -4 7 -13 -2 -23 -25 -8 -21
-15 -39 -15 -42 0 -3 -32 -58 -71 -123 -40 -65 -87 -145 -106 -178 -47 -81
-43 -77 -168 -170 -378 -279 -1148 -771 -1190 -759 -19 6 -181 102 -405 240
-99 61 -720 475 -827 551 -49 35 -73 63 -126 146 -163 260 -162 256 -245 500
-20 59 -38 104 -40 99 -1 -4 18 -68 43 -140 25 -73 45 -136 45 -140 0 -4 -40
52 -88 124 -167 252 -444 638 -498 695 l-34 35 -7 307 c-3 169 -3 307 0 307 4
0 30 -46 58 -102 87 -173 215 -371 361 -556 32 -40 58 -77 58 -82 0 -5 -7 -15
-15 -24 -8 -8 -15 -21 -15 -28 1 -9 4 -7 10 4 6 9 32 32 60 52 l50 36 32 -20
c30 -18 33 -18 52 -2 20 16 20 16 7 0 -12 -16 -11 -18 3 -18 9 0 16 5 16 11 0
5 5 7 10 4 6 -4 9 -14 8 -22 -2 -9 4 -18 12 -20 13 -4 13 -3 0 6 -43 30 26 4
155 -60 80 -39 150 -69 156 -67 6 2 -44 30 -112 62 -145 67 -237 124 -280 173
-45 52 -154 286 -204 438 -44 134 -87 313 -78 328 3 5 29 7 59 6 29 -2 57 1
61 6 5 4 2 5 -4 1 -9 -5 -11 -2 -7 8 5 12 17 8 65 -25 32 -22 59 -38 59 -35 0
3 -30 30 -67 60 -38 30 -156 129 -263 221 -259 221 -349 270 -517 282 l-83 6
0 -159z m625 -1712 c-129 -124 -238 -222 -247 -222 -4 0 -8 16 -8 35 0 32 6
38 78 87 42 28 113 78 156 110 44 32 82 58 85 58 3 0 -25 -31 -64 -68z m3929
-35 c39 -30 92 -68 119 -86 31 -21 47 -39 47 -53 0 -24 8 -30 -130 86 -120
101 -126 106 -116 106 5 0 40 -24 80 -53z m-523 -782 c68 -25 156 -55 194 -66
82 -24 115 -43 115 -66 0 -13 -7 -15 -47 -8 -27 4 -77 10 -113 15 -85 10 -288
39 -342 48 -55 10 -60 33 -18 85 41 48 57 48 211 -8z m-2793 16 c33 -14 95
-102 90 -128 -5 -26 -38 -27 -226 -4 -92 11 -207 23 -257 27 -101 7 -135 17
-135 38 0 10 27 21 88 34 198 46 376 59 440 33z"/>
<path d="M1105 2858 c4 -13 11 -27 16 -33 5 -5 4 5 -2 23 -12 36 -24 44 -14
10z"/>
<path d="M4071 2830 c-13 -11 -19 -20 -14 -20 6 0 18 9 28 20 23 25 17 25 -14
0z"/>
<path d="M970 2815 c13 -14 26 -25 28 -25 3 0 -5 11 -18 25 -13 14 -26 25 -28
25 -3 0 5 -11 18 -25z"/>
<path d="M1130 2805 c0 -5 5 -17 10 -25 5 -8 10 -10 10 -5 0 6 -5 17 -10 25
-5 8 -10 11 -10 5z"/>
<path d="M1054 2747 c34 -30 47 -49 43 -60 -6 -16 8 -175 18 -208 3 -8 27 -21
54 -28 27 -7 57 -19 68 -26 15 -13 16 -16 3 -24 -8 -6 -32 -13 -52 -16 -21 -4
-40 -11 -43 -15 -3 -5 13 -43 34 -85 42 -81 130 -189 184 -227 20 -13 8 3 -30
43 -63 65 -122 138 -123 151 0 4 17 16 37 26 l37 19 51 -53 c29 -29 65 -56 80
-60 36 -9 75 14 95 55 8 17 18 31 21 31 5 0 55 -58 91 -106 4 -6 -7 -29 -29
-55 l-37 -44 42 39 c23 22 52 61 64 88 l24 49 52 -35 c29 -20 52 -35 52 -33 0
4 -102 85 -165 131 -22 16 -124 96 -226 177 -182 145 -186 149 -214 214 -15
36 -29 64 -31 62 -3 -2 3 -21 11 -41 9 -21 15 -42 13 -47 -2 -5 -41 21 -88 57
-55 42 -67 49 -36 21z"/>
<path d="M1815 2150 c10 -11 20 -20 23 -20 3 0 -3 9 -13 20 -10 11 -20 20 -23
20 -3 0 3 -9 13 -20z"/>
<path d="M1860 2116 c0 -2 8 -10 18 -17 15 -13 16 -12 3 4 -13 16 -21 21 -21
13z"/>
<path d="M1510 2050 c-19 -11 -31 -19 -27 -20 11 0 67 29 67 35 0 7 -1 7 -40
-15z"/>
<path d="M1930 2066 c0 -2 8 -10 18 -17 15 -13 16 -12 3 4 -13 16 -21 21 -21
13z"/>
<path d="M3654 2054 c-18 -14 -18 -15 4 -4 12 6 22 13 22 15 0 8 -5 6 -26 -11z"/>
<path d="M3608 2033 c7 -3 16 -2 19 1 4 3 -2 6 -13 5 -11 0 -14 -3 -6 -6z"/>
<path d="M1398 1883 c7 -3 16 -2 19 1 4 3 -2 6 -13 5 -11 0 -14 -3 -6 -6z"/>
<path d="M3158 1833 c6 -2 18 -2 25 0 6 3 1 5 -13 5 -14 0 -19 -2 -12 -5z"/>
<path d="M3213 1823 c9 -2 25 -2 35 0 9 3 1 5 -18 5 -19 0 -27 -2 -17 -5z"/>
<path d="M3433 1823 c9 -2 23 -2 30 0 6 3 -1 5 -18 5 -16 0 -22 -2 -12 -5z"/>
<path d="M871 1655 c1 -19 18 -51 18 -35 0 8 -4 22 -9 30 -5 8 -9 11 -9 5z"/>
<path d="M2563 1350 c0 -47 2 -66 4 -42 2 23 2 61 0 85 -2 23 -4 4 -4 -43z"/>
<path d="M2428 630 c-80 -42 -81 -54 -1 -23 101 39 135 40 227 3 86 -34 113
-34 46 0 -112 57 -189 63 -272 20z"/>
<path d="M2530 620 c8 -5 20 -10 25 -10 6 0 3 5 -5 10 -8 5 -19 10 -25 10 -5
0 -3 -5 5 -10z"/>
<path d="M4761 118 c0 -65 3 -118 7 -118 4 0 6 44 4 97 -5 145 -9 153 -11 21z"/>
</g>
</svg>
