<?xml version="1.0" standalone="no"?>
<!DOCTYPE svg PUBLIC "-//W3C//DTD SVG 20010904//EN"
 "http://www.w3.org/TR/2001/REC-SVG-20010904/DTD/svg10.dtd">
<svg version="1.0" xmlns="http://www.w3.org/2000/svg"
 width="256.000000pt" height="256.000000pt" viewBox="0 0 256.000000 256.000000"
 preserveAspectRatio="xMidYMid meet">
<metadata>
Created by potrace 1.14, written by Peter Selinger 2001-2017
</metadata>
<g transform="translate(0.000000,256.000000) scale(0.100000,-0.100000)"
fill="#000000" stroke="none">
<path d="M0 1280 l0 -1280 1280 0 1280 0 0 1280 0 1280 -1280 0 -1280 0 0
-1280z m840 840 l0 -400 -400 0 -400 0 0 400 0 400 400 0 400 0 0 -400z m840
0 l0 -400 -400 0 -400 0 0 400 0 400 400 0 400 0 0 -400z m840 0 l0 -400 -400
0 -400 0 0 400 0 400 400 0 400 0 0 -400z m-2094 -452 c-1 -7 -7 -23 -14 -34
-6 -12 -8 -24 -5 -28 3 -3 1 -6 -6 -6 -7 0 -10 -4 -6 -9 3 -5 1 -12 -5 -16 -6
-4 -8 -10 -5 -15 9 -15 -16 -23 -84 -27 -36 -2 -73 -4 -80 -5 -15 -1 86 -98
102 -98 9 0 7 -58 -2 -75 -3 -5 -6 -14 -7 -20 -9 -49 -14 -66 -20 -76 -8 -13
20 1 94 48 l53 33 55 -35 c30 -19 59 -35 64 -35 6 0 10 -5 10 -11 0 -5 5 -7
10 -4 8 5 8 11 1 19 -6 7 -8 16 -5 19 3 3 2 12 -2 19 -5 7 -9 18 -11 23 -10
46 -13 56 -18 65 -3 5 9 22 27 37 86 74 100 90 87 91 -8 1 -45 3 -82 5 -66 4
-81 9 -83 28 -1 5 -3 11 -4 14 -1 3 -3 8 -5 13 -1 4 -5 14 -8 22 -4 8 -11 27
-16 43 l-11 27 195 0 195 0 0 -400 0 -400 -400 0 -400 0 0 400 0 400 194 0
c150 0 194 -3 192 -12z m1254 -388 l0 -400 -400 0 -400 0 0 400 0 400 400 0
400 0 0 -400z m840 0 l0 -400 -400 0 -400 0 0 400 0 400 400 0 400 0 0 -400z
m-1680 -840 l0 -400 -400 0 -400 0 0 400 0 400 400 0 400 0 0 -400z m840 0 l0
-400 -400 0 -400 0 0 400 0 400 400 0 400 0 0 -400z m840 0 l0 -400 -400 0
-400 0 0 400 0 400 400 0 400 0 0 -400z"/>
<path d="M80 2130 c0 -350 1 -370 18 -361 14 8 230 162 284 203 9 7 66 49 127
92 l110 80 -27 19 c-15 10 -106 70 -202 133 -96 63 -205 135 -242 160 l-68 44
0 -370z"/>
<path d="M1935 2310 c-4 -7 -4 -15 1 -19 8 -5 10 -78 5 -129 0 -7 -30 -26 -66
-44 -36 -17 -68 -34 -70 -38 -4 -6 81 -38 117 -44 27 -4 43 -22 46 -51 5 -59
8 -74 14 -80 4 -4 4 -13 2 -20 -3 -7 -1 -16 5 -20 6 -3 11 1 11 9 0 9 4 16 8
16 4 0 21 23 37 50 16 28 32 50 35 51 28 5 62 5 65 -1 2 -4 19 -6 37 -5 18 2
39 -2 46 -8 37 -30 10 32 -36 82 -44 46 -44 53 -7 127 37 74 43 93 22 75 -8
-6 -17 -8 -20 -4 -4 3 -7 1 -7 -6 0 -7 -4 -10 -9 -6 -5 3 -12 1 -16 -5 -4 -6
-10 -8 -15 -5 -5 3 -11 1 -15 -5 -4 -6 -10 -8 -15 -5 -5 3 -11 1 -15 -5 -11
-18 -37 -11 -65 18 -68 68 -88 84 -95 72z"/>
<path d="M1037 1603 c-4 -3 -33 -5 -67 -4 -64 1 -72 -5 -40 -34 11 -10 20 -24
20 -31 0 -7 3 -14 8 -16 8 -3 74 -93 217 -293 43 -60 88 -122 100 -136 l21
-26 41 61 c157 236 223 340 223 346 0 5 3 10 8 12 8 3 72 101 72 110 0 4 -32
6 -71 7 -38 0 -74 3 -79 6 -5 3 -11 1 -15 -5 -4 -6 -10 -8 -14 -5 -8 4 -85 5
-309 4 -50 0 -96 2 -101 5 -4 3 -11 3 -14 -1z"/>
<path d="M340 509 c-36 -55 -69 -108 -75 -116 -27 -44 -156 -239 -165 -250 -5
-7 -10 -15 -10 -19 0 -4 -7 -16 -17 -26 -16 -17 -4 -18 349 -18 200 0 367 3
371 6 3 4 -19 41 -50 83 -31 42 -75 102 -96 134 -22 31 -44 57 -48 57 -5 0 -9
7 -9 15 0 8 -11 26 -25 40 -14 14 -23 25 -21 25 6 0 -16 28 -41 55 -7 8 -13
17 -13 22 0 5 -13 23 -30 41 -16 18 -30 37 -30 43 0 30 -33 -4 -90 -92z"/>
<path d="M1394 743 c4 -7 3 -13 -2 -13 -5 0 -34 -20 -64 -45 -54 -44 -78 -55
-78 -35 0 6 -7 10 -16 10 -8 0 -35 11 -60 25 -41 23 -84 35 -59 17 9 -6 13
-17 19 -47 1 -5 8 -20 14 -32 7 -13 9 -23 5 -23 -4 0 -2 -5 5 -12 20 -20 14
-35 -42 -95 -51 -53 -63 -78 -33 -68 7 3 38 7 70 9 49 4 61 1 77 -17 11 -11
20 -27 20 -34 0 -7 5 -13 11 -13 5 0 8 -4 4 -9 -3 -5 0 -13 5 -16 6 -4 16 -18
21 -32 9 -25 20 -25 25 0 8 40 14 58 22 74 5 10 8 23 5 29 -8 24 34 42 110 47
15 1 27 5 27 9 0 4 9 5 20 3 11 -2 20 0 20 6 0 5 -6 9 -14 9 -8 0 -16 3 -18 8
-1 4 -26 22 -54 41 -50 33 -51 35 -47 75 2 23 5 52 6 66 2 14 6 31 11 38 5 8
3 18 -4 25 -10 9 -11 9 -6 0z"/>
<path d="M1760 440 c0 -204 2 -370 5 -370 3 0 51 34 108 75 56 41 175 127 265
192 89 64 161 117 160 118 -18 16 -202 135 -209 135 -5 0 -9 5 -9 10 0 6 -5
10 -11 10 -6 0 -39 19 -73 43 -33 23 -100 68 -148 100 l-88 57 0 -370z"/>
</g>
</svg>
