<?xml version="1.0" standalone="no"?>
<!DOCTYPE svg PUBLIC "-//W3C//DTD SVG 20010904//EN"
 "http://www.w3.org/TR/2001/REC-SVG-20010904/DTD/svg10.dtd">
<svg version="1.0" xmlns="http://www.w3.org/2000/svg"
 width="400.000000pt" height="400.000000pt" viewBox="0 0 400.000000 400.000000"
 preserveAspectRatio="xMidYMid meet">
<metadata>
Created by potrace 1.14, written by Peter Selinger 2001-2017
</metadata>
<g transform="translate(0.000000,400.000000) scale(0.100000,-0.100000)"
fill="#000000" stroke="none">
<path d="M1790 3784 c-87 -11 -254 -49 -346 -79 -583 -191 -1025 -664 -1179
-1260 -46 -180 -59 -304 -52 -515 6 -193 30 -328 87 -500 34 -102 151 -350
174 -369 11 -9 29 -6 81 14 78 29 93 30 132 11 78 -39 81 -40 99 -22 9 9 24
16 32 14 9 -2 26 7 39 19 12 13 28 23 35 23 7 0 3 -7 -9 -15 -13 -9 -28 -35
-35 -58 -15 -51 -36 -76 -48 -58 -6 10 -11 10 -28 0 -17 -11 -23 -10 -38 2
-13 11 -18 11 -21 2 -6 -17 -43 -16 -66 1 -13 10 -16 21 -11 40 3 14 10 26 15
26 5 0 9 5 9 10 0 22 -20 8 -36 -26 -9 -20 -24 -38 -33 -42 -9 -3 -19 -10 -23
-16 -5 -8 -14 -7 -29 2 -15 10 -24 11 -32 3 -6 -6 -18 -11 -27 -11 -9 0 -30
-15 -46 -32 -27 -32 -28 -36 -29 -137 0 -75 4 -106 13 -108 6 -3 12 -10 12
-17 0 -7 9 -21 20 -31 11 -10 20 -24 20 -32 0 -7 4 -13 8 -13 4 0 8 -16 9 -36
1 -20 7 -41 15 -45 11 -8 11 -10 -1 -18 -10 -6 -10 -10 -1 -16 9 -6 9 -9 -1
-16 -12 -7 -12 -12 0 -31 8 -13 15 -47 16 -75 1 -29 8 -65 16 -80 11 -20 11
-27 2 -30 -27 -9 -6 -83 23 -83 4 0 16 -7 25 -16 24 -21 147 -23 160 -2 7 11
11 10 19 -2 6 -10 10 -11 10 -2 0 6 6 12 14 12 7 0 19 7 26 15 16 20 70 46 70
34 0 -14 27 -11 34 4 5 9 7 9 12 0 3 -7 11 -13 18 -13 7 0 21 -9 31 -20 10
-11 22 -17 26 -14 5 3 23 -2 40 -10 24 -12 34 -13 50 -3 16 10 21 9 29 -3 7
-12 12 -12 22 -2 6 6 19 12 27 12 9 0 28 6 43 14 20 10 29 11 38 2 9 -8 14 -8
17 2 6 16 25 16 41 -1 19 -18 172 -19 179 -1 3 8 10 14 15 14 6 0 26 7 45 17
30 14 36 14 44 2 6 -10 9 -10 9 -1 0 17 25 15 41 -4 7 -9 21 -13 32 -10 12 3
31 -3 45 -14 21 -17 36 -19 99 -15 41 2 83 11 94 19 14 9 40 13 86 10 47 -3
75 1 100 13 33 15 36 15 45 -1 6 -11 16 -15 29 -11 13 4 28 0 39 -10 15 -13
22 -14 38 -4 17 10 23 10 37 -4 9 -9 25 -17 36 -17 10 0 19 -4 19 -10 0 -5 18
-13 40 -16 22 -4 40 -10 40 -15 0 -5 7 -9 15 -9 8 0 15 4 15 9 0 5 12 12 26
15 15 4 33 13 41 21 15 16 87 12 109 -6 8 -6 13 -5 18 6 3 8 16 15 30 15 13 0
27 6 29 13 4 9 8 9 15 -2 8 -11 10 -11 14 0 4 11 9 12 27 2 27 -16 48 -16 54
0 3 9 9 9 27 -1 19 -11 25 -11 40 3 18 17 60 13 60 -5 0 -4 11 -11 25 -14 14
-4 25 -11 25 -16 0 -16 46 -11 61 6 9 11 22 14 42 10 16 -3 38 -1 50 6 12 6
29 13 37 14 8 1 32 5 52 8 21 3 40 1 43 -5 4 -5 15 -7 26 -4 12 4 19 2 19 -7
0 -10 2 -10 9 1 6 9 11 10 15 2 4 -6 27 -20 52 -31 24 -11 44 -25 44 -30 0 -6
7 -10 15 -10 8 0 15 5 15 12 0 9 3 9 11 1 7 -7 22 -4 52 11 43 23 59 52 50 92
-3 12 0 25 6 28 7 5 7 13 -1 26 -9 14 -9 22 2 35 10 12 11 18 2 23 -13 9 -13
70 0 78 5 3 4 12 -3 20 -9 11 -9 20 1 39 11 20 10 27 -9 54 -12 16 -20 33 -19
38 6 23 -64 132 -85 133 -5 0 -24 12 -42 26 -24 18 -40 24 -56 19 -20 -7 -21
-5 -16 23 6 28 5 29 -18 18 -13 -6 -19 -13 -14 -17 9 -5 -34 -49 -48 -49 -12
0 -93 -85 -93 -97 0 -7 -4 -13 -9 -13 -5 0 -12 -10 -14 -22 -2 -13 -3 -7 -1
13 3 24 -1 41 -11 49 -17 14 -20 46 -6 55 20 12 22 64 5 102 -21 45 -50 77
-59 63 -13 -21 -53 32 -59 80 -4 33 -13 54 -27 64 -11 8 -16 17 -11 20 18 11
41 -5 44 -32 2 -15 8 -27 14 -27 14 0 48 -35 40 -42 -14 -14 16 -32 39 -23 20
8 30 2 69 -38 l46 -46 29 17 c16 9 49 17 74 17 40 0 48 4 79 42 88 108 208
327 263 478 68 190 105 405 105 610 0 854 -605 1590 -1445 1761 -89 18 -150
22 -320 24 -115 2 -226 1 -245 -1z m354 -248 c5 -1 -5 -16 -23 -33 -17 -17
-31 -36 -31 -42 0 -6 -4 -11 -10 -11 -5 0 -10 14 -10 30 0 20 -5 30 -15 30
-17 0 -21 26 -4 32 10 3 72 0 93 -6z m-337 -16 c10 -11 28 -20 40 -20 29 0 29
-4 1 -32 -14 -14 -23 -18 -26 -10 -2 7 -10 12 -18 12 -9 0 -14 11 -14 30 0 17
-4 30 -10 30 -5 0 -10 -13 -10 -30 0 -23 -5 -30 -19 -30 -12 0 -21 8 -24 23
l-4 22 -8 -22 c-4 -13 -14 -23 -21 -23 -8 0 -14 -7 -14 -15 0 -8 -7 -15 -15
-15 -8 0 -15 6 -15 14 0 30 13 46 36 46 13 0 24 4 24 10 0 8 44 26 73 29 4 1
15 -8 24 -19z m121 -22 c2 -11 -3 -18 -13 -18 -9 0 -14 4 -10 9 3 6 -3 15 -12
21 -16 9 -15 10 7 8 14 -2 26 -10 28 -20z m-285 5 c-18 -7 -16 -51 2 -69 8 -9
15 -29 15 -45 0 -26 -3 -29 -30 -29 -16 0 -30 -4 -30 -10 0 -5 -7 -10 -15 -10
-8 0 -15 5 -15 10 0 6 -13 10 -30 10 -32 0 -33 2 -24 38 4 15 14 22 30 22 13
0 24 5 24 10 0 6 7 10 15 10 9 0 15 -9 15 -25 0 -16 -6 -25 -15 -25 -8 0 -15
-7 -15 -15 0 -8 7 -15 15 -15 8 0 15 6 15 14 0 8 4 16 9 18 4 2 12 13 15 26 6
16 3 22 -8 22 -23 0 -22 57 2 63 23 6 40 7 25 0z m-73 -44 c0 -17 -5 -20 -25
-17 -17 4 -25 1 -25 -8 0 -8 -7 -14 -15 -14 -8 0 -15 -7 -15 -15 0 -8 -7 -15
-15 -15 -8 0 -15 -4 -15 -10 0 -5 -4 -10 -10 -10 -5 0 -10 11 -10 25 0 16 -6
25 -16 25 -8 0 -12 5 -9 10 3 6 15 10 26 10 10 0 19 -4 19 -10 0 -19 21 -10
30 14 9 26 23 34 58 35 16 1 22 -5 22 -20z m164 -5 c10 -25 7 -34 -9 -34 -8 0
-15 -7 -15 -15 0 -8 -7 -15 -15 -15 -20 0 -19 36 3 59 21 24 28 25 36 5z m56
6 c0 -5 7 -10 15 -10 8 0 15 -7 15 -15 0 -8 7 -15 15 -15 8 0 15 5 15 10 0 6
5 10 10 10 22 0 9 -40 -15 -46 -14 -3 -25 -12 -25 -20 0 -8 10 -14 25 -14 14
0 25 -4 25 -10 0 -5 -11 -10 -25 -10 -16 0 -25 -6 -25 -15 0 -8 -7 -15 -15
-15 -8 0 -15 7 -15 15 0 8 7 15 15 15 8 0 15 5 15 10 0 6 -11 10 -24 10 -40 0
-56 11 -56 36 0 13 4 24 9 24 5 0 12 11 15 25 6 24 26 36 26 15z m110 0 c0 -5
-4 -10 -10 -10 -5 0 -10 5 -10 10 0 6 5 10 10 10 6 0 10 -4 10 -10z m630 -25
c0 -8 -4 -15 -10 -15 -5 0 -10 7 -10 15 0 8 5 15 10 15 6 0 10 -7 10 -15z m58
-27 c-1 -34 16 -49 52 -46 21 3 26 -2 28 -24 2 -16 -1 -28 -7 -28 -6 0 -11
-13 -11 -30 0 -23 -5 -30 -19 -30 -12 0 -21 8 -24 23 l-4 22 -8 -22 c-4 -13
-14 -23 -21 -23 -8 0 -14 -7 -14 -15 0 -8 -7 -15 -15 -15 -8 0 -15 6 -15 14 0
30 13 46 36 46 15 0 24 6 24 15 0 9 9 15 25 15 16 0 25 6 25 15 0 8 -6 15 -14
15 -8 0 -21 -7 -30 -15 -8 -8 -24 -15 -35 -15 -12 0 -21 -6 -21 -15 0 -8 -7
-15 -15 -15 -10 0 -15 -10 -15 -30 0 -20 -5 -30 -15 -30 -10 0 -15 10 -15 30
0 17 4 30 9 30 5 0 12 14 16 30 4 17 10 28 15 25 5 -3 14 3 20 12 8 13 13 14
16 6 7 -15 34 -17 34 -3 0 6 -7 10 -15 10 -8 0 -15 7 -15 15 0 8 -4 15 -10 15
-5 0 -10 7 -10 15 0 8 5 15 10 15 6 0 10 7 10 15 0 8 6 12 14 9 9 -3 14 -18
14 -36z m-638 2 c0 -5 -4 -10 -10 -10 -5 0 -10 5 -10 10 0 6 5 10 10 10 6 0
10 -4 10 -10z m550 -6 c0 -8 -5 -12 -10 -9 -6 4 -8 11 -5 16 9 14 15 11 15 -7z
m-1100 -24 c0 -5 -11 -10 -25 -10 -14 0 -25 5 -25 10 0 6 11 10 25 10 14 0 25
-4 25 -10z m500 0 c0 -5 -4 -10 -10 -10 -5 0 -10 5 -10 10 0 6 5 10 10 10 6 0
10 -4 10 -10z m550 -5 c0 -9 9 -15 25 -15 14 0 25 -4 25 -10 0 -5 -4 -10 -10
-10 -5 0 -10 -13 -10 -30 0 -20 -5 -30 -15 -30 -11 0 -15 11 -15 40 0 29 -4
40 -15 40 -8 0 -15 -4 -15 -10 0 -5 -4 -10 -10 -10 -5 0 -10 11 -10 25 0 20 5
25 25 25 16 0 25 -6 25 -15z m80 5 c0 -5 -4 -10 -10 -10 -5 0 -10 5 -10 10 0
6 5 10 10 10 6 0 10 -4 10 -10z m-1020 -31 c0 -5 -4 -9 -10 -9 -5 0 -10 -7
-10 -15 0 -8 -7 -15 -15 -15 -14 0 -22 40 -9 52 8 8 44 -3 44 -13z m230 1 c0
-11 5 -20 10 -20 6 0 10 -4 10 -10 0 -5 -11 -10 -25 -10 -21 0 -25 5 -25 30 0
20 5 30 15 30 8 0 15 -9 15 -20z m-60 -14 c0 -13 6 -26 14 -29 15 -6 11 -47
-5 -47 -5 0 -9 -7 -9 -15 0 -20 -16 -19 -24 1 -10 25 -7 34 9 34 8 0 15 7 15
15 0 11 -11 15 -40 15 -47 0 -54 18 -10 27 17 3 30 9 30 14 0 5 5 9 10 9 6 0
10 -11 10 -24z m660 14 c0 -5 -4 -10 -10 -10 -5 0 -10 5 -10 10 0 6 5 10 10
10 6 0 10 -4 10 -10z m-786 -16 c17 -7 22 -44 6 -44 -5 0 -10 5 -10 10 0 6 -7
10 -15 10 -8 0 -15 7 -15 15 0 16 9 19 34 9z m396 -9 c0 -8 -9 -15 -19 -15
-29 0 -35 18 -9 23 13 2 24 5 26 6 1 0 2 -6 2 -14z m440 -5 c0 -5 9 -10 20
-10 11 0 20 -7 20 -15 0 -8 5 -15 10 -15 6 0 10 -14 10 -31 0 -28 -3 -31 -25
-27 -17 4 -25 1 -25 -8 0 -8 -7 -14 -15 -14 -9 0 -15 9 -15 25 0 20 6 27 30
32 38 7 39 21 3 25 -20 2 -29 9 -31 26 -2 12 1 22 7 22 6 0 11 -4 11 -10z
m360 0 c0 -5 -4 -10 -10 -10 -5 0 -10 5 -10 10 0 6 5 10 10 10 6 0 10 -4 10
-10z m-1295 -20 c4 -6 -5 -10 -19 -10 -14 0 -26 5 -26 10 0 6 9 10 19 10 11 0
23 -4 26 -10z m440 0 c3 -5 1 -10 -4 -10 -6 0 -11 5 -11 10 0 6 2 10 4 10 3 0
8 -4 11 -10z m830 -20 c31 0 31 -4 3 -32 -14 -14 -23 -18 -26 -10 -2 7 -10 12
-18 12 -8 0 -14 10 -14 23 0 30 12 42 22 22 5 -8 20 -15 33 -15z m83 3 c4 -28
-2 -29 -28 -3 -26 26 -25 32 3 28 14 -2 23 -11 25 -25z m-578 13 c0 -3 -4 -8
-10 -11 -5 -3 -10 -1 -10 4 0 6 5 11 10 11 6 0 10 -2 10 -4z m-690 -41 c0 -14
-4 -25 -10 -25 -5 0 -10 11 -10 25 0 14 5 25 10 25 6 0 10 -11 10 -25z m80 0
c0 -14 -4 -25 -10 -25 -5 0 -10 7 -10 15 0 8 -7 15 -15 15 -8 0 -15 5 -15 10
0 6 11 10 25 10 20 0 25 -5 25 -25z m140 15 c0 -5 -4 -10 -10 -10 -5 0 -10 5
-10 10 0 6 5 10 10 10 6 0 10 -4 10 -10z m80 0 c0 -5 -4 -10 -10 -10 -5 0 -10
5 -10 10 0 6 5 10 10 10 6 0 10 -4 10 -10z m530 0 c0 -5 -11 -10 -25 -10 -14
0 -25 5 -25 10 0 6 11 10 25 10 14 0 25 -4 25 -10z m-580 -30 c0 -5 -4 -10
-10 -10 -5 0 -10 5 -10 10 0 6 5 10 10 10 6 0 10 -4 10 -10z m80 0 c0 -5 -4
-10 -10 -10 -5 0 -10 5 -10 10 0 6 5 10 10 10 6 0 10 -4 10 -10z m410 0 c0 -5
-4 -10 -10 -10 -5 0 -10 5 -10 10 0 6 5 10 10 10 6 0 10 -4 10 -10z m334 -6
c10 -25 7 -34 -9 -34 -8 0 -15 -7 -15 -15 0 -8 -7 -15 -15 -15 -20 0 -19 36 3
59 21 24 28 25 36 5z m56 6 c0 -5 7 -10 15 -10 8 0 15 -7 15 -15 0 -10 -10
-15 -31 -15 -20 0 -29 -4 -27 -12 7 -19 47 -22 54 -4 3 9 12 16 20 16 8 0 14
5 14 10 0 6 5 10 10 10 22 0 9 -40 -15 -46 -14 -3 -25 -12 -25 -20 0 -8 10
-14 25 -14 14 0 25 -4 25 -10 0 -5 -11 -10 -25 -10 -16 0 -25 -6 -25 -15 0 -8
-7 -15 -15 -15 -8 0 -15 7 -15 15 0 8 7 15 15 15 8 0 15 5 15 10 0 6 -11 10
-24 10 -40 0 -56 11 -56 36 0 13 4 24 9 24 5 0 12 11 15 25 6 24 26 36 26 15z
m110 0 c0 -5 -4 -10 -10 -10 -5 0 -10 5 -10 10 0 6 5 10 10 10 6 0 10 -4 10
-10z m-1680 -36 c0 -8 6 -14 13 -15 10 0 10 -2 0 -6 -15 -6 -17 -43 -3 -43 6
0 10 -7 10 -15 0 -8 5 -15 10 -15 6 0 19 -9 29 -19 16 -16 17 -20 5 -25 -25
-9 -15 -48 21 -82 18 -19 43 -34 55 -34 14 0 20 -7 20 -22 0 -13 12 -34 26
-48 24 -22 27 -23 39 -7 15 21 25 22 25 2 0 -9 9 -15 25 -15 14 0 28 7 31 15
4 8 17 15 30 15 15 0 24 -6 24 -15 0 -8 5 -15 10 -15 6 0 10 -70 10 -190 0
-162 2 -190 15 -190 11 0 15 -11 15 -40 0 -27 -4 -39 -12 -37 -9 1 -14 -18
-16 -65 l-3 -68 -50 0 c-35 0 -51 -4 -55 -15 -9 -24 -24 -17 -24 10 0 14 -4
25 -10 25 -5 0 -10 7 -10 15 0 10 -11 15 -35 15 -24 0 -35 -5 -35 -15 0 -8 -9
-15 -20 -15 -11 0 -20 7 -20 15 0 10 -11 15 -35 15 -24 0 -35 -5 -35 -15 0 -9
-9 -15 -25 -15 -14 0 -25 -4 -25 -10 0 -5 -7 -10 -15 -10 -10 0 -15 -10 -15
-30 0 -16 -4 -30 -10 -30 -6 0 -10 75 -10 205 0 176 2 205 15 205 12 0 15 14
15 70 0 56 -3 70 -15 70 -8 0 -15 5 -15 10 0 6 7 10 15 10 12 0 15 15 15 75 0
60 -3 75 -15 75 -13 0 -15 23 -15 143 0 79 3 146 6 149 10 10 44 -4 44 -18z
m410 6 c0 -5 -4 -10 -10 -10 -5 0 -10 5 -10 10 0 6 5 10 10 10 6 0 10 -4 10
-10z m60 6 c0 -3 -4 -8 -10 -11 -5 -3 -10 -1 -10 4 0 6 5 11 10 11 6 0 10 -2
10 -4z m190 -6 c0 -5 -4 -10 -10 -10 -5 0 -10 5 -10 10 0 6 5 10 10 10 6 0 10
-4 10 -10z m50 0 c0 -5 -2 -10 -4 -10 -3 0 -8 5 -11 10 -3 6 -1 10 4 10 6 0
11 -4 11 -10z m420 6 c0 -11 -19 -15 -25 -6 -3 5 1 10 9 10 9 0 16 -2 16 -4z
m110 -6 c0 -5 7 -10 15 -10 8 0 15 -7 15 -15 0 -8 -7 -15 -15 -15 -8 0 -15 -4
-15 -10 0 -5 -4 -10 -10 -10 -5 0 -10 11 -10 25 0 16 -6 25 -15 25 -8 0 -15 5
-15 10 0 6 11 10 25 10 14 0 25 -4 25 -10z m140 -15 c0 -16 -6 -25 -15 -25 -8
0 -15 -7 -15 -15 0 -8 7 -15 15 -15 8 0 15 7 15 15 0 8 5 15 10 15 6 0 10 6
10 13 0 6 5 19 10 27 9 13 11 13 20 0 5 -8 10 -27 10 -42 0 -16 5 -28 10 -28
6 0 10 -11 10 -24 0 -13 7 -26 15 -30 8 -3 15 -10 15 -15 0 -5 -7 -16 -15 -25
-8 -8 -15 -19 -15 -25 0 -17 -17 -13 -24 5 -10 25 -7 34 9 34 8 0 15 7 15 15
0 11 -11 15 -40 15 -47 0 -54 18 -10 27 17 3 30 9 30 14 0 5 -13 9 -30 9 -16
0 -30 -4 -30 -10 0 -5 -7 -10 -15 -10 -8 0 -15 5 -15 10 0 6 -13 10 -30 10
-32 0 -33 2 -24 38 4 15 14 22 30 22 13 0 24 5 24 10 0 6 7 10 15 10 9 0 15
-9 15 -25z m584 -66 c53 -51 117 -116 142 -146 l44 -55 0 -109 0 -109 -40 0
c-29 0 -40 4 -40 15 0 9 -9 15 -25 15 -14 0 -25 5 -25 10 0 6 -7 10 -15 10 -8
0 -15 7 -15 16 0 11 -8 14 -32 12 -30 -3 -33 -6 -36 -41 -2 -26 1 -39 12 -43
9 -3 16 -12 16 -20 0 -8 5 -14 10 -14 6 0 21 -11 34 -25 17 -18 34 -25 60 -25
25 0 36 -4 36 -15 0 -10 10 -15 30 -15 l30 0 0 -275 c0 -177 4 -275 10 -275 6
0 10 -22 10 -50 0 -27 -4 -50 -10 -50 -6 0 -10 -90 -10 -250 0 -216 -2 -250
-15 -250 -8 0 -15 -7 -15 -15 0 -8 -4 -15 -10 -15 -19 0 -50 -35 -50 -57 0
-18 -6 -23 -25 -23 -16 0 -25 -6 -25 -15 0 -10 -10 -15 -30 -15 -16 0 -30 -5
-30 -11 0 -14 -25 -39 -39 -39 -6 0 -11 -7 -11 -15 0 -8 -4 -15 -10 -15 -5 0
-10 25 -10 55 0 30 5 55 10 55 6 0 10 11 10 25 0 16 -6 25 -15 25 -8 0 -15 -7
-15 -15 0 -8 -4 -15 -10 -15 -5 0 -10 -11 -10 -25 0 -16 -6 -25 -15 -25 -11 0
-15 -11 -15 -40 0 -27 -4 -40 -13 -40 -10 0 -14 18 -16 65 -2 53 1 65 13 65
11 0 16 10 16 30 0 20 5 30 15 30 8 0 15 7 15 15 0 8 -6 15 -14 15 -28 0 -46
-12 -46 -32 0 -11 -7 -26 -15 -34 -8 -9 -15 -24 -15 -35 0 -10 -4 -19 -10 -19
-5 0 -10 -12 -10 -27 0 -38 -10 -73 -21 -73 -5 0 -9 9 -9 20 0 32 -36 60 -75
60 -24 0 -35 5 -35 15 0 9 -9 15 -25 15 -20 0 -25 5 -25 25 0 14 -7 28 -15 31
-8 4 -15 17 -15 30 0 15 -6 24 -15 24 -13 0 -15 32 -15 230 0 198 2 230 15
230 12 0 15 15 15 75 0 60 -3 75 -15 75 -13 0 -15 24 -15 160 0 136 2 160 15
160 8 0 15 7 15 15 0 8 7 15 15 15 8 0 15 7 15 15 0 8 7 15 16 15 8 0 12 5 9
10 -3 6 1 10 9 10 9 0 16 7 16 15 0 11 11 15 38 15 43 0 72 26 72 65 0 24 -2
25 -70 25 -56 0 -70 -3 -70 -15 0 -10 -10 -15 -30 -15 -16 0 -30 -4 -30 -10 0
-5 -4 -10 -10 -10 -6 0 -10 27 -10 60 0 57 1 60 25 60 14 0 25 -4 25 -10 0 -5
7 -10 16 -10 18 0 44 23 44 39 0 18 42 13 56 -6 12 -17 14 -17 33 4 12 12 21
36 21 53 0 29 29 70 50 70 6 0 10 7 10 15 0 8 9 15 20 15 11 0 29 9 40 20 11
11 20 29 20 40 0 11 7 20 15 20 10 0 15 10 15 30 0 18 -6 33 -15 36 -8 4 -15
17 -15 30 0 15 -6 24 -16 24 -14 0 -15 8 -9 48 4 26 11 49 16 50 14 6 11 100
-3 105 -7 3 -4 6 8 6 13 1 57 -33 118 -90z m-1419 61 c3 -5 1 -10 -4 -10 -6 0
-11 5 -11 10 0 6 2 10 4 10 3 0 8 -4 11 -10z m55 -6 c0 -8 -5 -12 -10 -9 -6 4
-8 11 -5 16 9 14 15 11 15 -7z m170 6 c0 -5 -4 -10 -10 -10 -5 0 -10 5 -10 10
0 6 5 10 10 10 6 0 10 -4 10 -10z m960 0 c0 -5 -4 -10 -10 -10 -5 0 -10 5 -10
10 0 6 5 10 10 10 6 0 10 -4 10 -10z m-1815 -136 c2 -81 7 -130 14 -132 6 -2
11 -29 11 -64 0 -46 -4 -64 -17 -74 -17 -13 -17 -15 0 -28 21 -17 25 -136 4
-136 -10 0 -12 -141 -12 -700 1 -385 -3 -700 -7 -700 -4 0 -17 8 -28 17 -24
21 -27 84 -5 107 17 17 20 46 5 46 -6 0 -13 -7 -16 -15 -11 -28 -24 -15 -24
25 0 29 4 40 15 40 9 0 15 9 15 25 0 16 -6 25 -15 25 -12 0 -15 13 -15 55 0
30 5 55 10 55 6 0 10 20 10 45 0 25 -4 45 -10 45 -5 0 -10 11 -10 25 0 29 8
32 25 8 7 -10 17 -13 25 -8 10 6 10 10 -2 19 -22 16 -30 155 -8 141 6 -3 10 3
10 14 0 10 -6 22 -12 24 -10 4 -9 8 2 16 19 13 14 71 -7 87 -12 8 -15 22 -11
57 4 36 2 47 -8 47 -10 0 -14 15 -14 55 0 58 5 66 26 38 12 -17 13 -17 19 -1
4 10 0 24 -9 33 -10 10 -16 33 -16 60 0 25 -5 45 -12 48 -9 4 -10 8 -2 14 6 4
14 37 18 73 3 36 11 67 16 68 14 5 12 29 -2 36 -9 3 -8 8 5 16 9 6 17 15 17
20 0 15 -38 12 -43 -2 -2 -7 -8 -9 -13 -5 -5 4 -2 12 5 16 9 6 15 37 18 90 3
68 2 81 -11 81 -9 0 -16 7 -16 15 0 8 7 15 15 15 9 0 15 9 15 25 0 14 5 25 10
25 12 0 13 57 1 62 -4 2 -11 20 -15 40 -5 30 -3 40 15 57 12 11 18 24 14 30
-9 16 -25 13 -25 -4 0 -8 -7 -15 -15 -15 -9 0 -15 9 -15 25 0 16 6 25 15 25
11 0 15 12 15 51 0 38 5 55 17 65 10 7 19 11 21 9 2 -1 5 -60 7 -131z m605
106 c0 -5 -4 -10 -10 -10 -5 0 -10 5 -10 10 0 6 5 10 10 10 6 0 10 -4 10 -10z
m110 -15 c0 -18 -5 -25 -20 -25 -11 0 -20 5 -20 10 0 6 5 10 10 10 6 0 10 7
10 15 0 8 5 15 10 15 6 0 10 -11 10 -25z m550 15 c0 -5 -9 -10 -20 -10 -11 0
-20 5 -20 10 0 6 9 10 20 10 11 0 20 -4 20 -10z m500 0 c0 -5 -4 -10 -10 -10
-5 0 -10 5 -10 10 0 6 5 10 10 10 6 0 10 -4 10 -10z m-160 -30 c0 -11 5 -20
10 -20 6 0 10 -4 10 -10 0 -5 -11 -10 -25 -10 -21 0 -25 5 -25 30 0 20 5 30
15 30 8 0 15 -9 15 -20z m-230 0 c0 -5 -4 -10 -10 -10 -5 0 -10 -7 -10 -15 0
-8 -7 -15 -15 -15 -9 0 -15 9 -15 25 0 20 5 25 25 25 14 0 25 -4 25 -10z m44
-16 c17 -7 22 -44 6 -44 -5 0 -10 5 -10 10 0 6 -7 10 -15 10 -8 0 -15 7 -15
15 0 16 9 19 34 9z m396 -9 c0 -8 -9 -15 -20 -15 -25 0 -26 17 -2 23 9 3 18 5
20 6 1 0 2 -6 2 -14z m-495 -25 c4 -6 -5 -10 -19 -10 -14 0 -26 5 -26 10 0 6
9 10 19 10 11 0 23 -4 26 -10z m440 0 c3 -5 1 -10 -4 -10 -6 0 -11 5 -11 10 0
6 2 10 4 10 3 0 8 -4 11 -10z m-355 -45 c0 -14 -4 -25 -10 -25 -5 0 -10 11
-10 25 0 14 5 25 10 25 6 0 10 -11 10 -25z m80 0 c0 -14 -4 -25 -10 -25 -5 0
-10 7 -10 15 0 8 -4 15 -10 15 -5 0 -10 5 -10 10 0 6 9 10 20 10 15 0 20 -7
20 -25z m140 15 c0 -5 -4 -10 -10 -10 -5 0 -10 5 -10 10 0 6 5 10 10 10 6 0
10 -4 10 -10z m80 0 c0 -5 -4 -10 -10 -10 -5 0 -10 5 -10 10 0 6 5 10 10 10 6
0 10 -4 10 -10z m-50 -30 c0 -5 -4 -10 -10 -10 -5 0 -10 5 -10 10 0 6 5 10 10
10 6 0 10 -4 10 -10z m80 0 c0 -5 -4 -10 -10 -10 -5 0 -10 5 -10 10 0 6 5 10
10 10 6 0 10 -4 10 -10z m-114 -37 c-10 -10 -19 5 -10 18 6 11 8 11 12 0 2 -7
1 -15 -2 -18z m-1801 -503 c11 0 15 -11 15 -40 0 -27 -4 -39 -12 -38 -9 2 -14
-17 -16 -64 -2 -38 -7 -68 -12 -68 -6 0 -10 5 -10 10 0 6 -11 10 -25 10 -16 0
-25 6 -25 15 0 8 7 15 15 15 8 0 15 5 15 10 0 6 -7 13 -15 16 -10 4 -15 20
-15 45 0 37 -2 39 -30 39 -20 0 -30 5 -30 15 0 10 -10 15 -30 15 -27 0 -30 -3
-30 -30 0 -16 -4 -30 -10 -30 -5 0 -10 7 -10 15 0 11 -12 15 -45 15 -34 0 -45
-4 -45 -16 0 -8 -4 -13 -10 -9 -10 6 31 131 78 236 39 86 109 202 174 289 l53
72 3 -261 c2 -223 5 -261 17 -261z m1155 500 c16 -16 17 -20 5 -20 -8 0 -15
-9 -15 -20 0 -11 7 -20 15 -20 8 0 15 -5 15 -11 0 -7 11 -22 25 -34 19 -18 21
-24 10 -29 -26 -9 -16 -48 20 -82 18 -19 43 -34 55 -34 14 0 20 -7 20 -22 0
-13 12 -34 26 -48 24 -22 27 -23 39 -7 15 21 25 22 25 2 0 -9 9 -15 25 -15 14
0 28 7 31 15 4 8 17 15 30 15 15 0 24 -6 24 -15 0 -8 4 -15 9 -15 5 0 11 -34
13 -75 l3 -75 -37 0 c-27 0 -38 4 -38 15 0 9 -9 15 -25 15 -14 0 -25 5 -25 10
0 6 -7 10 -15 10 -8 0 -15 7 -15 15 0 8 -7 15 -15 15 -8 0 -15 7 -15 15 0 8
-7 15 -15 15 -8 0 -15 7 -15 15 0 8 -4 15 -10 15 -5 0 -10 11 -10 25 0 16 -6
25 -15 25 -8 0 -15 7 -15 15 0 8 -7 15 -15 15 -8 0 -15 7 -15 15 0 8 -6 15
-13 15 -14 0 -47 -35 -47 -50 0 -6 -4 -10 -10 -10 -5 0 -10 7 -10 15 0 8 -9
15 -20 15 -11 0 -20 -7 -20 -15 0 -8 -7 -15 -15 -15 -8 0 -15 -7 -15 -15 0 -8
-4 -15 -10 -15 -5 0 -10 -11 -10 -25 0 -14 -2 -25 -5 -25 -3 0 -16 11 -29 25
-13 14 -32 25 -44 25 -11 0 -22 7 -26 15 -3 8 -17 15 -31 15 -16 0 -25 6 -25
15 0 8 -7 15 -15 15 -12 0 -15 15 -15 75 0 73 1 75 24 75 13 0 26 -6 29 -12 5
-17 57 9 57 29 0 19 41 16 56 -4 12 -17 14 -17 33 4 12 12 21 36 21 53 0 16 8
39 18 49 22 24 19 24 42 1z m400 10 c0 -5 -4 -10 -10 -10 -5 0 -10 5 -10 10 0
6 5 10 10 10 6 0 10 -4 10 -10z m60 6 c0 -3 -4 -8 -10 -11 -5 -3 -10 -1 -10 4
0 6 5 11 10 11 6 0 10 -2 10 -4z m80 -26 c0 -5 -4 -10 -10 -10 -5 0 -10 5 -10
10 0 6 5 10 10 10 6 0 10 -4 10 -10z m47 -12 c-3 -8 -6 -5 -6 6 -1 11 2 17 5
13 3 -3 4 -12 1 -19z m173 12 c0 -5 -5 -10 -11 -10 -5 0 -7 5 -4 10 3 6 8 10
11 10 2 0 4 -4 4 -10z m-250 -30 c0 -5 -4 -10 -10 -10 -5 0 -10 5 -10 10 0 6
5 10 10 10 6 0 10 -4 10 -10z m110 -15 c0 -18 -5 -25 -20 -25 -11 0 -20 5 -20
10 0 6 5 10 10 10 6 0 10 7 10 15 0 8 5 15 10 15 6 0 10 -11 10 -25z m-1650
-75 c0 -5 -2 -10 -4 -10 -3 0 -8 5 -11 10 -3 6 -1 10 4 10 6 0 11 -4 11 -10z
m690 -25 c0 -8 7 -15 15 -15 12 0 15 -13 15 -55 0 -30 5 -55 10 -55 12 0 13
-47 1 -52 -10 -3 -23 -362 -15 -395 5 -18 15 -23 53 -26 37 -3 42 -5 24 -11
-13 -5 -23 -15 -23 -22 0 -8 -7 -14 -16 -14 -8 0 -12 -4 -9 -10 3 -5 -1 -10
-9 -10 -19 0 -17 27 -19 -389 -2 -233 -5 -305 -14 -309 -19 -6 -16 -52 2 -52
8 0 15 -7 15 -15 0 -8 5 -15 11 -15 12 0 39 -25 39 -37 0 -14 37 -41 61 -45
25 -3 36 -48 12 -48 -7 0 -13 4 -13 9 0 5 -11 12 -25 15 -14 4 -25 11 -25 16
0 6 -9 10 -20 10 -15 0 -20 -7 -20 -25 0 -14 -4 -25 -10 -25 -5 0 -10 -7 -10
-15 0 -9 -9 -15 -25 -15 -26 0 -35 25 -12 33 7 2 8 8 3 13 -5 5 -11 4 -13 -3
-5 -15 -33 -17 -33 -3 0 6 5 10 10 10 6 0 10 14 10 30 0 17 -4 30 -10 30 -5 0
-10 11 -10 25 0 14 5 25 10 25 6 0 10 7 10 15 0 8 -4 15 -10 15 -5 0 -10 7
-10 15 0 8 7 15 15 15 9 0 15 9 15 24 0 13 7 26 15 30 18 7 9 66 -13 82 -11 8
-14 23 -10 57 4 36 2 47 -8 47 -10 0 -14 15 -14 55 0 53 11 72 24 40 3 -8 10
-15 16 -15 15 0 12 29 -5 46 -9 9 -15 34 -15 60 0 24 -4 44 -10 44 -5 0 -10
11 -10 25 0 29 8 32 25 8 7 -9 17 -13 23 -9 17 10 15 26 -3 26 -23 0 -25 95
-3 138 10 19 9 25 -2 33 -12 8 -12 12 -2 16 17 7 15 33 -3 33 -8 0 -15 -4 -15
-10 0 -5 -4 -10 -10 -10 -5 0 -10 23 -10 50 0 28 5 50 10 50 6 0 10 18 10 40
0 27 5 43 15 46 8 4 15 10 15 15 0 14 -28 11 -33 -3 -2 -7 -8 -9 -13 -5 -5 4
-4 11 2 15 6 4 15 37 18 75 4 37 12 67 17 67 5 0 9 7 9 15 0 8 -4 15 -10 15
-15 0 -12 48 3 53 16 5 -10 57 -30 57 -17 0 -17 18 2 36 8 9 15 29 15 45 0 19
-5 29 -15 29 -8 0 -15 7 -15 15 0 8 7 15 16 15 12 0 15 6 10 25 -5 18 -2 25 9
25 8 0 15 -7 15 -15z m1730 -165 c0 -5 8 -10 18 -10 34 0 42 -43 42 -220 0
-129 3 -170 13 -170 8 0 12 -20 12 -65 0 -45 -4 -65 -12 -65 -10 0 -13 -38
-13 -155 l0 -155 25 0 c14 0 25 -4 25 -10 0 -5 -4 -10 -10 -10 -5 0 -10 -7
-10 -15 0 -8 -7 -15 -15 -15 -13 0 -15 -24 -15 -155 0 -106 -3 -155 -11 -155
-6 0 -13 9 -16 20 -3 11 -9 20 -14 20 -5 0 -9 29 -9 65 0 51 -3 65 -15 65 -10
0 -15 10 -15 30 0 20 5 30 15 30 8 0 15 -7 15 -15 0 -8 5 -15 10 -15 14 0 12
27 -2 34 -10 5 -10 7 0 12 14 7 16 34 2 34 -5 0 -10 7 -10 15 0 8 -7 15 -15
15 -8 0 -15 7 -15 15 0 8 7 15 15 15 11 0 15 11 15 40 0 29 -4 40 -15 40 -11
0 -15 11 -15 40 0 29 4 40 15 40 12 0 15 19 15 110 0 67 4 110 10 110 6 0 10
14 10 30 0 17 -4 30 -10 30 -5 0 -10 23 -10 50 0 28 5 50 10 50 6 0 10 9 10
20 0 11 -4 20 -10 20 -6 0 -10 28 -10 65 0 51 -3 65 -15 65 -12 0 -15 16 -15
80 0 47 4 80 10 80 6 0 10 -4 10 -10z m-1590 -25 c0 -16 -9 -19 -35 -9 -13 5
-14 8 -3 15 20 13 38 11 38 -6z m-170 -25 c0 -5 -4 -10 -10 -10 -5 0 -10 5
-10 10 0 6 5 10 10 10 6 0 10 -4 10 -10z m220 -5 c0 -8 7 -15 15 -15 8 0 15
-4 15 -10 0 -5 -11 -10 -25 -10 -16 0 -25 6 -25 15 0 8 -8 15 -17 15 -15 0
-16 2 -3 10 22 14 40 12 40 -5z m220 6 c0 -5 9 -11 21 -14 12 -3 19 -11 17
-18 -7 -22 -29 -22 -35 0 -3 12 -9 21 -14 21 -5 0 -9 5 -9 10 0 6 5 10 10 10
6 0 10 -4 10 -9z m470 -6 c0 -8 7 -15 16 -15 12 0 14 -7 9 -30 -8 -37 3 -110
17 -110 5 0 16 -7 24 -15 14 -13 12 -18 -13 -41 l-28 -26 1 -161 c2 -128 5
-163 15 -165 19 -3 20 -132 2 -132 -15 0 -16 -14 -14 -270 1 -157 4 -197 16
-206 19 -14 8 -54 -16 -54 -24 0 -34 -19 -15 -26 25 -9 19 -24 -9 -24 -14 0
-25 5 -25 10 0 6 -7 10 -15 10 -13 0 -15 13 -14 68 1 37 3 75 6 85 5 17 6 17
17 1 7 -9 18 -14 24 -10 17 10 15 26 -3 26 -12 0 -15 15 -15 71 0 44 4 68 10
64 6 -4 10 6 10 24 0 16 3 36 6 45 4 11 1 16 -10 16 -10 0 -16 8 -16 21 0 12
-8 28 -17 35 -17 13 -17 15 0 25 9 5 17 19 17 29 0 11 5 20 10 20 6 0 10 9 10
20 0 11 -4 20 -10 20 -5 0 -10 11 -10 25 0 14 5 25 10 25 6 0 10 14 10 30 0
17 -4 30 -10 30 -5 0 -10 23 -10 50 0 28 5 50 10 50 6 0 10 9 10 20 0 11 -4
20 -10 20 -6 0 -10 28 -10 65 0 51 -3 65 -15 65 -10 0 -15 10 -15 30 0 20 5
30 15 30 8 0 15 -7 15 -15 0 -8 5 -15 10 -15 14 0 12 27 -2 34 -10 5 -10 7 0
12 17 8 15 34 -3 34 -8 0 -15 -6 -15 -12 0 -9 -4 -8 -10 2 -15 24 -12 87 5 94
11 4 15 22 15 71 0 37 4 65 10 65 6 0 10 -7 10 -15z m-492 -53 c2 -8 -10 -12
-37 -12 -46 0 -56 16 -13 23 36 5 45 3 50 -11z m-274 -7 c3 -9 19 -15 41 -15
19 0 35 -4 35 -10 0 -5 7 -10 15 -10 8 0 15 -4 15 -10 0 -5 -7 -10 -15 -10 -8
0 -15 -6 -15 -14 0 -8 -7 -16 -15 -20 -8 -3 -15 -17 -15 -31 0 -16 6 -25 15
-25 11 0 15 -11 15 -40 0 -29 -4 -40 -15 -40 -8 0 -15 -7 -15 -15 0 -9 -9 -15
-25 -15 -14 0 -25 -4 -25 -10 0 -5 -11 -10 -25 -10 l-25 0 0 145 0 145 24 0
c13 0 26 -7 30 -15z m-804 -20 c0 -8 -4 -15 -10 -15 -5 0 -10 7 -10 15 0 8 5
15 10 15 6 0 10 -7 10 -15z m660 -1 c0 -8 -5 -12 -10 -9 -6 4 -8 11 -5 16 9
14 15 11 15 -7z m655 -124 c24 0 35 -5 35 -15 0 -9 9 -15 24 -15 l24 0 7 -462
c8 -518 6 -599 -12 -606 -8 -2 -13 6 -13 21 0 26 -29 45 -50 32 -15 -9 -12
-25 5 -25 12 0 15 -13 15 -55 0 -56 -13 -73 -24 -32 -3 12 -6 37 -6 55 0 17
-4 32 -10 32 -5 0 -10 11 -10 24 0 13 -6 26 -14 29 -8 3 -16 16 -18 29 -2 17
-10 23 -27 23 -13 0 -26 -6 -28 -12 -3 -7 2 -13 11 -13 10 0 16 -9 16 -25 0
-14 7 -28 15 -31 17 -7 22 -84 5 -84 -5 0 -10 7 -10 15 0 8 -7 15 -15 15 -8 0
-15 7 -15 15 0 8 -7 15 -15 15 -8 0 -15 -7 -15 -15 0 -8 4 -15 9 -15 5 0 11
-11 13 -25 5 -22 2 -25 -23 -25 -19 0 -29 -5 -29 -15 0 -8 -7 -15 -15 -15 -11
0 -15 12 -15 50 0 28 -4 50 -9 50 -6 0 -13 20 -16 43 -5 34 -13 48 -35 60 -35
21 -40 21 -40 2 0 -8 5 -15 10 -15 6 0 10 -13 10 -30 0 -20 5 -30 15 -30 12 0
15 -14 15 -65 0 -62 -1 -65 -24 -65 -13 0 -26 7 -30 15 -3 8 -15 15 -27 15
-12 0 -32 11 -45 25 -16 18 -34 25 -59 25 -24 0 -35 4 -35 15 0 9 -9 15 -25
15 -20 0 -25 5 -25 25 0 14 -7 28 -15 31 -8 4 -15 17 -15 30 0 15 -6 24 -15
24 -13 0 -15 44 -15 340 0 296 2 340 15 340 8 0 15 7 15 15 0 8 7 15 15 15 8
0 15 7 15 15 0 9 9 15 21 15 12 0 32 11 45 25 13 14 30 25 40 25 9 0 25 -11
36 -25 11 -14 30 -25 44 -25 15 0 24 -6 24 -15 0 -8 5 -15 10 -15 17 0 50 39
50 60 0 11 7 20 15 20 8 0 15 6 15 14 0 9 12 16 28 18 31 3 45 44 18 54 -9 3
-16 12 -16 20 0 8 -7 14 -15 14 -8 0 -15 5 -15 10 0 6 7 10 15 10 11 0 15 11
15 39 0 25 5 41 15 45 8 3 15 17 15 30 0 23 4 21 55 -29 46 -46 61 -55 90 -55z
m365 100 c0 -5 -4 -10 -10 -10 -5 0 -10 5 -10 10 0 6 5 10 10 10 6 0 10 -4 10
-10z m870 -108 c31 -122 50 -265 50 -372 0 -120 -5 -140 -36 -140 -14 0 -27
-7 -30 -15 -16 -41 -24 -2 -24 120 0 113 2 135 15 135 12 0 15 15 15 75 0 60
-3 75 -15 75 -12 0 -15 19 -15 112 0 69 4 108 9 103 5 -6 19 -47 31 -93z
m-900 78 c0 -5 -4 -10 -10 -10 -5 0 -10 5 -10 10 0 6 5 10 10 10 6 0 10 -4 10
-10z m-630 -60 c0 -5 -4 -10 -10 -10 -5 0 -10 5 -10 10 0 6 5 10 10 10 6 0 10
-4 10 -10z m-30 -20 c0 -5 -4 -10 -10 -10 -5 0 -10 5 -10 10 0 6 5 10 10 10 6
0 10 -4 10 -10z m90 0 c0 -5 -7 -10 -15 -10 -8 0 -15 -7 -15 -15 0 -8 7 -15
15 -15 8 0 15 -7 15 -15 0 -9 -9 -15 -24 -15 -13 0 -26 -7 -30 -15 -3 -8 -17
-15 -31 -15 -21 0 -25 5 -25 30 0 22 -5 30 -17 30 -14 0 -15 2 -4 13 11 10 14
10 18 0 3 -7 11 -13 19 -13 8 0 14 -7 14 -15 0 -8 5 -15 10 -15 6 0 10 7 10
15 0 8 -4 15 -10 15 -21 0 -9 20 15 26 14 3 25 10 25 15 0 5 7 9 15 9 8 0 15
-4 15 -10z m1340 -30 c0 -5 -4 -10 -10 -10 -5 0 -10 5 -10 10 0 6 5 10 10 10
6 0 10 -4 10 -10z m-2720 -25 c0 -8 -7 -15 -15 -15 -16 0 -20 12 -8 23 11 12
23 8 23 -8z m-80 1 c0 -3 -4 -8 -10 -11 -5 -3 -10 -1 -10 4 0 6 5 11 10 11 6
0 10 -2 10 -4z m100 -32 c0 -8 -5 -12 -10 -9 -6 4 -8 11 -5 16 9 14 15 11 15
-7z m-190 -24 c0 -5 -4 -10 -10 -10 -5 0 -10 5 -10 10 0 6 5 10 10 10 6 0 10
-4 10 -10z m110 -5 c0 -8 7 -15 15 -15 9 0 15 -9 15 -25 0 -14 -4 -25 -10 -25
-5 0 -10 7 -10 15 0 8 -7 15 -15 15 -9 0 -15 9 -15 25 0 14 5 25 10 25 6 0 10
-7 10 -15z m60 6 c0 -6 -4 -13 -10 -16 -5 -3 -10 1 -10 9 0 9 5 16 10 16 6 0
10 -4 10 -9z m1180 -1 c0 -5 -4 -10 -10 -10 -5 0 -10 5 -10 10 0 6 5 10 10 10
6 0 10 -4 10 -10z m-25 -30 c4 -6 -5 -10 -19 -10 -14 0 -26 5 -26 10 0 6 9 10
19 10 11 0 23 -4 26 -10z m-1315 -40 c12 -12 20 -33 20 -55 0 -19 5 -35 10
-35 6 0 21 -11 34 -25 13 -14 27 -25 31 -25 4 0 18 11 31 25 13 14 32 25 44
25 11 0 20 7 20 15 0 8 7 15 15 15 10 0 15 10 15 29 0 25 3 28 23 23 40 -10
77 -57 77 -96 0 -20 -4 -36 -10 -36 -6 0 -10 -30 -10 -70 0 -40 4 -70 10 -70
6 0 10 -47 10 -120 0 -73 -4 -120 -10 -120 -6 0 -10 -30 -10 -69 0 -52 4 -70
15 -75 11 -4 15 -20 15 -56 0 -38 -4 -50 -15 -50 -8 0 -15 -7 -15 -15 0 -8 -7
-15 -15 -15 -10 0 -15 -10 -15 -30 0 -20 -5 -30 -15 -30 -9 0 -15 -9 -15 -25
0 -22 -4 -25 -40 -25 -29 0 -40 -4 -40 -15 0 -8 -6 -15 -14 -15 -8 0 -16 -5
-18 -12 -5 -13 -77 150 -101 227 -26 84 -55 206 -66 282 -19 128 -12 463 10
463 5 0 18 -9 29 -20z m740 10 c0 -5 7 -10 15 -10 8 0 15 -7 15 -15 0 -8 -7
-15 -15 -15 -8 0 -15 7 -15 15 0 8 -4 15 -10 15 -5 0 -10 5 -10 10 0 6 5 10
10 10 6 0 10 -4 10 -10z m190 0 c0 -5 -11 -10 -25 -10 -14 0 -25 5 -25 10 0 6
11 10 25 10 14 0 25 -4 25 -10z m-222 -31 c2 -5 8 -9 13 -9 17 0 51 -38 44
-49 -10 -17 -45 -13 -52 7 -9 22 -29 42 -42 42 -6 0 -11 7 -11 16 0 11 6 14
23 8 12 -3 24 -11 25 -15z m2172 1 c0 -5 -2 -10 -4 -10 -3 0 -8 5 -11 10 -3 6
-1 10 4 10 6 0 11 -4 11 -10z m-1920 -25 c0 -8 5 -15 10 -15 6 0 10 -60 10
-160 0 -153 -1 -160 -20 -160 -11 0 -20 5 -20 10 0 6 -13 10 -30 10 -20 0 -30
5 -30 15 0 8 -7 15 -15 15 -11 0 -15 11 -15 40 0 29 4 40 15 40 10 0 15 10 15
30 0 20 -5 30 -15 30 -11 0 -15 11 -15 40 0 22 -4 40 -10 40 -5 0 -10 11 -10
25 0 23 4 25 40 25 29 0 40 4 40 15 0 9 9 15 25 15 16 0 25 -6 25 -15z m1040
-25 c0 -5 -4 -10 -10 -10 -5 0 -10 5 -10 10 0 6 5 10 10 10 6 0 10 -4 10 -10z
m-1430 -30 c0 -5 -4 -10 -10 -10 -5 0 -10 5 -10 10 0 6 5 10 10 10 6 0 10 -4
10 -10z m0 -85 c0 -8 7 -15 15 -15 11 0 15 -11 15 -40 0 -29 4 -40 15 -40 8 0
15 -4 15 -10 0 -5 -7 -10 -15 -10 -8 0 -15 -7 -15 -15 0 -8 -7 -15 -15 -15
-10 0 -15 -10 -15 -30 0 -27 3 -30 30 -30 20 0 30 -5 30 -15 0 -8 5 -15 10
-15 6 0 10 -11 10 -25 0 -16 6 -25 15 -25 8 0 15 -7 15 -15 0 -8 7 -15 15 -15
9 0 18 7 21 15 4 8 15 15 26 15 12 0 31 11 44 25 13 14 30 25 39 25 19 0 45
-23 45 -39 0 -6 14 -11 30 -11 20 0 30 -5 30 -15 0 -8 7 -15 15 -15 8 0 15 -7
15 -15 0 -8 5 -15 10 -15 6 0 10 -11 10 -25 0 -14 -4 -25 -10 -25 -15 0 -13
-137 3 -144 10 -5 10 -7 0 -12 -7 -3 -13 -12 -13 -20 0 -8 -7 -14 -15 -14 -9
0 -15 -9 -15 -25 0 -14 -4 -25 -10 -25 -5 0 -10 -13 -10 -30 0 -27 -3 -30 -30
-30 -20 0 -30 -5 -30 -15 0 -9 -9 -15 -24 -15 -13 0 -26 -7 -30 -15 -7 -19
-36 -20 -36 -1 0 8 -5 16 -10 18 -6 2 -12 13 -13 25 -2 31 -57 43 -57 12 0 -5
7 -9 15 -9 12 0 15 -13 15 -55 0 -30 -4 -55 -9 -55 -13 0 -21 27 -21 71 0 21
-4 39 -9 39 -5 0 -12 11 -15 25 -4 14 -11 25 -16 25 -6 0 -10 9 -10 20 0 10
-9 24 -19 30 -26 13 -31 13 -31 -5 0 -8 5 -15 10 -15 6 0 10 -11 10 -25 0 -16
6 -25 15 -25 11 0 15 -12 15 -45 0 -25 -3 -45 -6 -45 -4 0 -22 16 -40 36 l-34
35 0 350 c0 226 4 349 10 349 6 0 10 -7 10 -15z m-110 -50 c0 -19 -4 -35 -10
-35 -5 0 -10 16 -10 35 0 19 5 35 10 35 6 0 10 -16 10 -35z m1540 -5 c0 -5 -4
-10 -10 -10 -5 0 -10 5 -10 10 0 6 5 10 10 10 6 0 10 -4 10 -10z m-1240 -19
c0 -5 10 -11 21 -14 15 -4 20 -11 15 -22 -3 -9 -6 -28 -6 -41 0 -19 -5 -24
-25 -24 -16 0 -25 -6 -25 -15 0 -8 -7 -15 -15 -15 -8 0 -15 7 -15 15 0 8 -7
15 -15 15 -22 0 -19 42 5 63 11 9 25 17 30 17 6 0 10 7 10 15 0 8 5 15 10 15
6 0 10 -4 10 -9z m1240 -61 c0 -5 -4 -10 -10 -10 -5 0 -10 5 -10 10 0 6 5 10
10 10 6 0 10 -4 10 -10z m-1150 -30 c0 -5 -4 -10 -10 -10 -5 0 -10 5 -10 10 0
6 5 10 10 10 6 0 10 -4 10 -10z m20 -26 c0 -8 -5 -12 -10 -9 -6 4 -8 11 -5 16
9 14 15 11 15 -7z m60 -24 c0 -5 -11 -10 -25 -10 -14 0 -25 5 -25 10 0 6 11
10 25 10 14 0 25 -4 25 -10z m56 -36 c-3 -9 -6 -21 -6 -27 0 -7 -5 -4 -11 6
-5 9 -17 17 -24 17 -8 0 -15 5 -15 10 0 6 14 10 31 10 24 0 30 -3 25 -16z
m2004 -14 c0 -5 -5 -10 -11 -10 -5 0 -7 5 -4 10 3 6 8 10 11 10 2 0 4 -4 4
-10z m39 -87 c-23 -104 -48 -193 -54 -193 -3 0 -5 52 -5 115 0 96 3 115 15
115 8 0 15 7 15 15 0 8 7 15 15 15 8 0 15 5 15 10 0 6 4 10 9 10 5 0 0 -39
-10 -87z m-1029 42 c0 -14 -4 -25 -10 -25 -11 0 -14 33 -3 43 11 11 13 8 13
-18z m880 15 c0 -5 -4 -10 -10 -10 -5 0 -10 5 -10 10 0 6 5 10 10 10 6 0 10
-4 10 -10z m-1760 -195 c0 -19 -4 -35 -10 -35 -5 0 -10 16 -10 35 0 19 5 35
10 35 6 0 10 -16 10 -35z m1760 -55 c0 -5 -4 -10 -10 -10 -5 0 -10 5 -10 10 0
6 5 10 10 10 6 0 10 -4 10 -10z m30 -45 c0 -16 6 -25 15 -25 17 0 18 -6 5 -35
-5 -11 -9 -14 -9 -7 -1 6 -8 12 -16 12 -8 0 -15 7 -15 15 0 8 -7 15 -15 15 -8
0 -15 7 -15 15 0 8 7 15 15 15 8 0 15 5 15 10 0 6 5 10 10 10 6 0 10 -11 10
-25z m-30 -80 c0 -14 -4 -25 -10 -25 -5 0 -10 11 -10 25 0 14 5 25 10 25 6 0
10 -11 10 -25z m-770 -8 c0 -18 34 -45 62 -49 27 -4 40 -48 14 -48 -9 0 -16 5
-16 10 0 6 -6 10 -13 10 -23 0 -67 44 -67 68 0 12 5 22 10 22 6 0 10 -6 10
-13z m800 -24 c0 -5 -5 -15 -10 -23 -8 -12 -10 -11 -10 8 0 12 5 22 10 22 6 0
10 -3 10 -7z m-2330 -48 c0 -16 -6 -25 -15 -25 -9 0 -15 9 -15 25 0 16 6 25
15 25 9 0 15 -9 15 -25z m820 -14 c0 -23 -14 -41 -31 -41 -10 0 -19 4 -19 9 0
5 -3 16 -6 25 -5 13 1 16 25 16 17 0 31 -4 31 -9z m610 -1 c0 -5 -7 -10 -15
-10 -8 0 -15 5 -15 10 0 6 7 10 15 10 8 0 15 -4 15 -10z m268 -15 c-3 -31 -43
-36 -51 -6 -6 25 0 31 30 31 18 0 22 -5 21 -25z m602 15 c0 -5 -4 -10 -10 -10
-5 0 -10 5 -10 10 0 6 5 10 10 10 6 0 10 -4 10 -10z m-820 -31 c0 -5 -11 -9
-25 -9 -28 0 -34 16 -7 23 20 4 32 -1 32 -14z m-1820 -29 c0 -15 57 -12 64 3
5 10 7 10 12 0 7 -15 44 -17 44 -3 0 6 11 10 25 10 14 0 25 -4 25 -10 0 -14
27 -12 34 3 5 10 7 10 12 0 7 -15 64 -18 64 -3 0 6 18 10 40 10 22 0 40 -4 40
-10 0 -15 57 -12 64 3 5 10 7 10 12 0 7 -15 64 -18 64 -3 0 6 18 10 40 10 22
0 40 -4 40 -10 0 -5 7 -10 15 -10 8 0 15 5 15 10 0 6 11 10 25 10 14 0 25 -4
25 -10 0 -15 57 -12 64 3 5 10 7 10 12 0 7 -15 44 -17 44 -3 0 6 11 10 25 10
14 0 25 -4 25 -10 0 -14 27 -12 34 3 5 10 7 10 12 0 7 -15 64 -18 64 -3 0 6
18 10 40 10 22 0 40 -4 40 -10 0 -15 57 -12 64 3 5 10 7 10 12 0 7 -15 64 -18
64 -3 0 6 18 10 40 10 22 0 40 -4 40 -10 0 -15 57 -12 64 3 5 10 7 10 12 0 7
-15 64 -18 64 -3 0 6 18 10 40 10 22 0 40 -4 40 -10 0 -15 57 -12 64 3 5 10 7
10 12 0 7 -15 64 -18 64 -3 0 6 18 10 40 10 22 0 40 -4 40 -10 0 -5 7 -10 15
-10 8 0 15 5 15 10 0 6 11 10 25 10 14 0 25 -4 25 -10 0 -5 14 -10 30 -10 17
0 30 5 30 10 0 6 18 10 40 10 22 0 40 -4 40 -10 0 -5 7 -10 15 -10 8 0 15 5
15 10 0 6 11 10 25 10 14 0 25 -4 25 -10 0 -5 14 -10 30 -10 17 0 30 5 30 10
0 6 7 10 15 10 8 0 15 -4 15 -10 0 -5 7 -10 15 -10 8 0 15 5 15 10 0 6 11 10
25 10 14 0 25 -4 25 -10 0 -14 27 -12 34 3 5 10 7 10 12 0 7 -15 60 -17 69 -3
8 13 75 13 75 0 0 -5 7 -10 15 -10 8 0 15 -5 15 -11 0 -6 -7 -17 -15 -25 -8
-9 -15 -24 -15 -35 0 -23 -18 -25 -26 -4 -4 8 -17 15 -30 15 -15 0 -24 6 -24
15 0 9 -9 15 -24 15 -13 0 -26 -7 -30 -15 -3 -8 -17 -15 -31 -15 -16 0 -25 6
-25 15 0 9 -9 15 -24 15 -13 0 -26 -7 -30 -15 -3 -8 -10 -15 -16 -15 -5 0 -10
7 -10 15 0 21 -40 19 -56 -2 -12 -17 -14 -17 -33 4 -12 12 -21 27 -21 33 0 5
-7 10 -15 10 -8 0 -15 -7 -15 -15 0 -8 -4 -15 -10 -15 -5 0 -13 -14 -17 -31
l-8 -30 -23 19 c-12 11 -22 24 -22 31 0 17 -41 13 -56 -6 -12 -17 -14 -17 -33
4 -12 12 -21 27 -21 33 0 5 -7 10 -15 10 -8 0 -15 -5 -15 -11 0 -6 -7 -17 -15
-25 -8 -9 -15 -24 -15 -35 0 -10 -3 -19 -8 -19 -10 0 -42 38 -42 50 0 16 -47
11 -54 -5 -3 -8 -16 -15 -30 -15 -13 0 -27 -7 -30 -17 -6 -14 -11 -12 -36 15
-24 27 -36 32 -73 32 -31 0 -47 -5 -51 -15 -3 -8 -16 -15 -30 -15 -13 0 -27
-7 -30 -17 -6 -14 -11 -12 -36 15 -24 27 -36 32 -73 32 -31 0 -47 -5 -51 -15
-3 -8 -16 -15 -30 -15 -13 0 -27 -7 -30 -17 -6 -14 -11 -12 -36 15 -31 34 -64
42 -74 17 -3 -8 -10 -15 -16 -15 -5 0 -10 7 -10 15 0 9 -9 15 -24 15 -13 0
-26 -7 -30 -15 -3 -8 -17 -15 -31 -15 -16 0 -25 6 -25 15 0 9 -9 15 -24 15
-13 0 -26 -7 -30 -15 -3 -8 -10 -15 -16 -15 -5 0 -10 7 -10 15 0 21 -47 19
-59 -2 -9 -16 -13 -15 -38 15 -31 35 -43 40 -43 17 0 -8 -7 -15 -15 -15 -9 0
-15 -9 -15 -24 0 -37 -15 -39 -40 -6 -25 32 -70 42 -70 15 0 -9 -9 -15 -24
-15 -13 0 -27 -8 -30 -17 -6 -14 -11 -12 -36 15 -31 34 -64 42 -74 17 -3 -8
-10 -15 -16 -15 -5 0 -10 7 -10 15 0 9 -9 15 -24 15 -13 0 -26 -7 -30 -15 -3
-8 -17 -15 -31 -15 -14 0 -28 7 -31 15 -10 24 -41 18 -48 -10 -5 -21 -29 -38
-24 -17 0 4 -2 15 -6 25 -10 21 -56 23 -56 2 0 -23 -13 -18 -40 15 -29 33 -40
37 -40 13 0 -13 -3 -14 -11 -6 -8 8 -8 15 2 27 16 17 59 22 59 6z m2420 0 c0
-5 16 -10 35 -10 19 0 35 5 35 10 0 6 16 10 35 10 19 0 35 -4 35 -9 0 -5 9
-11 21 -14 18 -5 19 -8 7 -26 -14 -22 -28 -28 -28 -11 0 18 -92 12 -106 -7
-12 -17 -14 -17 -33 4 -12 12 -21 27 -21 33 0 5 -4 10 -10 10 -5 0 -10 5 -10
10 0 6 9 10 20 10 11 0 20 -4 20 -10z m-2223 -86 c-3 -3 -12 -4 -19 -1 -8 3
-5 6 6 6 11 1 17 -2 13 -5z m-14 -32 c-11 -7 -40 -65 -42 -84 -1 -5 -4 -9 -8
-10 -5 -2 -9 14 -11 35 -2 21 1 37 7 37 6 0 11 7 11 15 0 10 10 15 28 15 16 0
22 -3 15 -8z m63 -47 c4 -11 17 -31 30 -45 12 -14 26 -35 31 -46 9 -24 89
-114 101 -114 13 0 32 -39 26 -55 -3 -8 -2 -15 4 -15 5 0 12 -9 15 -20 6 -24
-5 -26 -23 -5 -7 8 -16 13 -20 10 -20 -12 -75 32 -85 67 -5 20 -13 40 -17 44
-4 4 -3 13 3 21 9 10 7 17 -7 31 -11 9 -24 26 -30 36 -11 21 -21 27 -71 48
-33 13 -42 35 -22 55 18 18 59 10 65 -12z m-446 -67 c17 -11 22 -10 29 0 7 12
12 12 31 0 18 -10 24 -10 27 0 6 14 33 16 33 2 0 -5 11 -10 25 -10 14 0 25 5
25 10 0 6 7 10 15 10 8 0 15 -4 15 -10 0 -5 7 -10 15 -10 8 0 15 5 15 10 0 14
27 12 33 -2 4 -10 8 -9 16 2 8 12 13 12 23 2 14 -14 58 -16 58 -2 0 6 9 10 20
10 11 0 20 -4 20 -10 0 -5 11 -10 25 -10 18 0 28 -7 35 -24 5 -13 13 -27 18
-30 5 -3 9 -25 9 -48 0 -23 5 -44 12 -46 6 -2 11 -10 11 -17 0 -7 15 -25 33
-39 17 -15 38 -31 46 -38 10 -8 15 -7 22 3 5 8 9 9 9 3 0 -6 12 -17 28 -24 32
-16 102 -22 102 -9 0 5 10 9 22 9 12 0 30 7 40 17 25 22 241 28 259 7 14 -17
39 -18 39 -2 0 7 7 5 17 -4 20 -17 83 -13 95 6 5 7 50 11 128 10 l121 -1 38
-37 c26 -26 44 -36 52 -30 8 4 32 10 54 12 22 2 47 10 56 18 8 8 21 14 27 14
7 0 12 4 12 9 0 15 64 20 92 6 19 -9 30 -10 34 -3 4 7 10 4 16 -6 5 -9 14 -16
19 -16 6 0 17 -7 26 -15 15 -16 54 -11 61 6 2 5 8 9 13 9 6 0 29 9 52 19 43
20 99 20 105 2 5 -16 27 -13 42 3 7 9 28 14 53 14 32 -1 50 -8 75 -32 17 -16
32 -34 32 -38 0 -19 38 -48 53 -42 20 7 23 26 5 23 -26 -3 -38 1 -38 14 0 18
-78 97 -95 97 -34 0 -10 69 28 83 10 4 17 14 15 23 -2 14 6 17 41 18 41 1 47
4 65 38 10 21 24 34 29 31 6 -3 16 2 23 11 11 15 13 12 19 -23 8 -46 -12 -80
-34 -58 -8 8 -11 8 -11 0 0 -7 -9 -14 -20 -18 -21 -7 -80 -61 -80 -75 0 -12
30 -33 37 -26 4 4 1 11 -7 16 -12 7 -10 13 10 34 13 15 30 26 37 26 8 0 16 7
19 15 5 11 10 13 19 5 8 -7 14 -7 17 -1 6 18 54 23 70 7 9 -9 19 -11 24 -6 6
6 17 -5 29 -28 11 -20 23 -39 26 -42 3 -3 3 -13 0 -23 -6 -16 -9 -15 -21 10
-22 44 -41 62 -57 56 -8 -3 -19 0 -23 7 -7 11 -11 11 -24 1 -8 -7 -20 -10 -26
-6 -7 4 -25 -5 -40 -20 -24 -23 -29 -35 -26 -65 4 -50 12 -60 46 -60 16 0 32
-5 35 -10 13 -21 56 -10 82 20 30 37 50 40 27 4 -17 -25 -17 -26 11 -48 19
-15 24 -25 17 -30 -15 -9 -15 -49 0 -64 16 -16 38 3 38 34 0 13 5 24 10 24 6
0 10 5 10 12 0 14 60 78 73 78 4 0 14 6 22 13 19 20 125 15 137 -7 5 -9 15
-16 22 -16 19 0 54 -41 61 -72 4 -16 11 -28 16 -28 5 0 9 -8 9 -17 0 -10 7
-31 15 -47 18 -35 19 -53 3 -59 -10 -3 -10 -9 0 -26 10 -18 10 -26 1 -37 -9
-11 -9 -14 1 -14 10 0 10 -3 0 -15 -10 -12 -10 -18 -1 -29 9 -11 9 -19 -1 -37
-10 -17 -10 -23 0 -26 14 -6 16 -33 2 -33 -5 0 -10 -7 -10 -15 0 -8 5 -15 12
-15 9 0 9 -3 0 -12 -7 -7 -12 -20 -12 -30 0 -10 -6 -18 -14 -18 -8 0 -16 -4
-18 -10 -1 -5 -22 -12 -46 -15 -32 -4 -44 -2 -48 9 -3 8 -18 18 -34 21 -16 3
-30 14 -33 26 -5 20 -37 27 -37 8 0 -8 -5 -8 -15 1 -12 10 -15 10 -15 0 0 -9
-5 -8 -18 3 -20 18 -81 15 -93 -4 -5 -8 -8 -8 -13 0 -5 8 -17 4 -39 -11 -21
-15 -32 -18 -35 -10 -5 17 -39 15 -46 -3 -6 -17 -61 -21 -71 -4 -4 5 -17 14
-28 20 -12 5 -30 14 -39 21 -14 10 -21 9 -37 -6 -16 -15 -24 -16 -35 -7 -11
10 -19 9 -35 -1 -17 -10 -25 -10 -41 0 -12 7 -26 9 -33 5 -6 -4 -27 -8 -47
-10 -19 -2 -38 -10 -42 -17 -9 -15 -58 -9 -71 8 -6 8 -10 7 -14 -3 -4 -11 -7
-11 -14 0 -6 11 -11 10 -27 -4 -10 -9 -23 -17 -29 -17 -6 0 -13 -6 -15 -12 -6
-18 -76 -14 -113 6 -16 9 -38 16 -47 16 -10 0 -18 3 -18 8 0 4 -9 13 -21 20
-16 10 -24 11 -35 1 -11 -9 -18 -8 -33 6 -12 10 -27 14 -40 10 -13 -4 -23 0
-29 11 -9 16 -12 16 -45 1 -25 -12 -53 -16 -101 -13 -45 3 -71 -1 -83 -10 -10
-7 -28 -14 -40 -14 -12 0 -23 -5 -25 -11 -3 -8 -11 -8 -27 2 -19 11 -25 11
-28 2 -6 -15 -43 -17 -43 -3 0 6 -6 10 -14 10 -7 0 -19 7 -26 15 -7 9 -21 13
-34 9 -14 -3 -28 1 -35 10 -16 19 -41 21 -41 4 0 -9 -3 -9 -9 1 -8 12 -15 11
-48 -4 -21 -9 -48 -27 -60 -38 -20 -18 -26 -19 -48 -7 -20 11 -27 11 -40 0
-14 -12 -18 -11 -25 1 -7 11 -12 11 -22 1 -9 -9 -16 -8 -34 9 -19 18 -25 19
-44 7 -17 -10 -24 -10 -27 -1 -3 10 -9 10 -26 0 -12 -7 -25 -15 -28 -20 -10
-13 -128 -15 -154 -1 -15 8 -27 9 -31 3 -3 -5 -15 2 -26 16 -10 14 -25 25 -33
25 -7 0 -16 6 -19 13 -5 9 -7 9 -12 0 -7 -15 -34 -18 -34 -4 0 14 -58 -17 -73
-40 -9 -12 -31 -21 -63 -25 -27 -3 -52 -11 -56 -17 -6 -9 -8 -9 -8 1 0 6 -9
12 -20 12 -11 0 -20 -6 -20 -12 0 -9 -3 -10 -8 -2 -4 6 -19 14 -34 18 -16 3
-28 11 -28 16 0 6 -6 10 -14 10 -11 0 -14 15 -13 67 0 43 -4 68 -11 71 -15 5
-16 32 -1 32 8 0 8 4 0 14 -9 11 -9 15 1 19 10 4 10 7 -1 15 -9 6 -15 34 -16
76 -2 37 -8 73 -15 81 -9 11 -9 15 -1 15 14 0 -5 35 -36 65 -12 12 -25 33 -28
48 -4 15 -11 27 -16 27 -14 0 -11 58 4 63 9 3 9 9 -1 26 -10 18 -10 26 -1 37
8 10 8 14 0 14 -6 0 -11 7 -11 15 0 8 4 15 9 15 5 0 12 11 15 25 5 18 15 27
36 32 17 3 33 10 36 14 7 12 11 11 34 -3z m860 -89 c0 -11 -11 -11 -29 0 -7 5
-10 14 -6 20 5 9 10 9 21 0 8 -6 14 -15 14 -20z m475 11 c11 -12 20 -27 21
-34 4 -28 38 -66 63 -72 42 -9 85 -27 93 -38 5 -7 16 -7 37 0 21 8 32 9 40 1
14 -14 14 -54 1 -62 -5 -3 -10 -1 -10 6 0 8 -4 8 -16 -2 -13 -11 -20 -7 -50
27 -33 36 -39 39 -92 40 -94 2 -92 1 -92 32 0 15 5 33 11 39 6 6 8 17 4 23
-10 16 -21 -2 -35 -52 -6 -21 -15 -38 -20 -38 -12 0 -13 77 -1 82 12 4 24 48
14 48 -14 0 -43 -67 -43 -100 0 -23 -7 -32 -32 -44 -55 -24 -85 -27 -98 -11
-10 11 -16 12 -26 4 -10 -8 -18 -7 -30 6 -10 9 -26 14 -37 11 -17 -4 -19 0
-15 30 3 23 0 34 -9 34 -7 0 -13 -5 -13 -10 0 -7 -6 -7 -20 0 -24 13 -26 7 -4
-15 26 -26 2 -44 -53 -40 -25 2 -46 5 -48 7 -1 2 -5 26 -9 53 -6 46 -5 48 9
31 8 -11 15 -23 15 -28 0 -4 14 -8 30 -8 17 0 30 4 30 8 0 5 17 14 37 20 31
10 38 9 49 -6 8 -9 14 -22 14 -28 0 -14 71 -44 103 -44 27 0 107 71 107 95 0
15 36 54 51 55 3 0 14 -9 24 -20z m455 -42 c0 -5 -4 -6 -10 -3 -13 8 -13 -8 1
-22 13 -13 8 -59 -6 -56 -5 1 -11 15 -13 30 -4 37 -30 93 -43 93 -12 0 -1 -43
12 -48 10 -4 12 -42 2 -42 -3 0 -15 7 -25 17 -11 9 -18 11 -18 5 0 -7 5 -12
10 -12 6 0 10 -18 10 -40 0 -34 -3 -40 -20 -40 -11 0 -23 -7 -26 -15 -4 -8
-14 -15 -25 -15 -13 0 -20 10 -25 35 -3 20 -15 42 -26 49 -13 9 -16 16 -8 21
14 9 40 -13 40 -34 0 -11 7 -7 25 13 14 17 23 36 20 44 -6 17 13 44 26 36 5
-3 9 3 9 14 0 10 3 21 6 24 7 7 84 -43 84 -54z m450 18 c0 -30 -3 -34 -22 -29
-22 4 -22 4 -5 -10 11 -9 14 -18 8 -21 -6 -4 -8 -13 -5 -21 4 -10 -4 -18 -22
-25 -16 -6 -32 -16 -36 -23 -5 -8 -12 -6 -26 6 -11 10 -23 17 -28 16 -25 -4
-34 4 -34 31 0 20 5 30 15 30 8 0 15 -4 15 -9 0 -5 10 -13 21 -16 16 -5 27 0
45 21 13 16 23 37 24 46 0 16 24 37 43 38 4 0 7 -15 7 -34z m-140 14 c0 -5 -7
-10 -16 -10 -8 0 -12 5 -9 10 3 6 10 10 16 10 5 0 9 -4 9 -10z m-30 -24 c0 -2
-7 -17 -15 -32 -8 -16 -15 -37 -15 -47 0 -23 -19 -42 -50 -52 -14 -4 -36 -16
-51 -26 -24 -17 -25 -17 -37 2 -7 10 -19 19 -27 19 -8 0 -19 8 -24 18 -9 14
-12 15 -20 3 -10 -16 -15 -3 -25 64 -6 35 -5 38 7 23 8 -10 17 -15 20 -11 4 3
7 -3 7 -14 0 -14 16 -28 53 -46 29 -15 55 -27 58 -27 3 0 23 16 44 35 34 29
37 35 21 41 -16 6 -15 9 11 30 26 22 43 29 43 20z m-1230 -61 c0 -25 -5 -45
-11 -45 -6 0 -17 -7 -25 -15 -9 -8 -24 -15 -35 -15 -10 0 -19 -4 -19 -9 0 -5
-16 -9 -35 -8 -33 1 -35 3 -35 34 0 21 6 36 15 39 12 5 13 9 4 20 -10 12 -9
13 5 8 9 -3 16 -13 16 -20 0 -8 6 -17 13 -20 20 -7 92 21 93 37 4 57 14 52 14
-6z m1656 -50 c4 -8 10 -15 15 -15 4 0 6 7 3 15 -5 11 -2 13 10 9 9 -3 16 -13
16 -21 0 -12 -7 -14 -27 -9 -16 4 -35 8 -44 9 -20 2 -13 27 7 27 8 0 17 -7 20
-15z"/>
<path d="M1762 3408 c5 -15 48 -18 48 -3 0 6 -11 11 -26 13 -18 3 -25 0 -22
-10z"/>
<path d="M960 2360 c0 -5 7 -10 15 -10 8 0 15 5 15 10 0 6 -7 10 -15 10 -8 0
-15 -4 -15 -10z"/>
<path d="M970 1544 c0 -14 5 -24 11 -22 6 2 10 7 10 11 -1 4 -1 14 -1 22 0 8
-4 15 -10 15 -5 0 -10 -12 -10 -26z"/>
<path d="M1620 2220 c0 -5 7 -10 15 -10 8 0 15 5 15 10 0 6 -7 10 -15 10 -8 0
-15 -4 -15 -10z"/>
<path d="M1620 1355 c0 -18 5 -25 20 -25 15 0 20 7 20 25 0 18 -5 25 -20 25
-15 0 -20 -7 -20 -25z"/>
<path d="M3390 2555 c0 -8 5 -15 10 -15 6 0 10 7 10 15 0 8 -4 15 -10 15 -5 0
-10 -7 -10 -15z"/>
<path d="M3390 1920 c0 -13 5 -20 13 -17 6 2 12 10 12 17 0 7 -6 15 -12 18 -8
2 -13 -5 -13 -18z"/>
<path d="M2513 2453 c-18 -7 -16 -23 2 -23 8 0 15 7 15 15 0 8 -1 15 -2 14 -2
0 -9 -3 -15 -6z"/>
<path d="M2500 1450 c0 -5 7 -10 15 -10 8 0 15 5 15 10 0 6 -7 10 -15 10 -8 0
-15 -4 -15 -10z"/>
<path d="M2502 1398 c6 -18 28 -21 28 -4 0 9 -7 16 -16 16 -9 0 -14 -5 -12
-12z"/>
<path d="M1212 1894 c4 -21 22 -23 26 -1 2 10 -3 17 -13 17 -10 0 -15 -6 -13
-16z"/>
<path d="M474 920 c-17 -20 -21 -37 -19 -78 2 -34 -2 -56 -11 -63 -22 -18 -16
-43 19 -77 30 -29 35 -31 47 -17 7 8 21 13 30 10 9 -3 23 1 30 10 7 8 16 15
21 15 12 0 4 -97 -10 -114 -9 -10 -8 -16 4 -26 14 -12 14 -15 0 -30 -14 -15
-13 -20 1 -49 15 -30 15 -34 -1 -51 -15 -16 -16 -22 -5 -35 10 -12 10 -19 2
-27 -7 -7 -12 -24 -12 -39 0 -15 -5 -31 -10 -34 -8 -5 -7 -11 1 -21 6 -8 8
-21 3 -31 -12 -28 -11 -37 5 -56 10 -12 23 -16 37 -13 13 4 26 1 29 -4 5 -8
11 -8 20 0 7 6 24 8 37 5 16 -4 29 -1 38 9 9 12 16 13 25 6 18 -15 60 37 45
56 -7 7 -7 15 -2 18 11 7 13 134 2 141 -9 6 11 55 23 55 12 0 8 28 -5 33 -10
3 -10 9 0 29 12 21 12 29 1 47 -11 17 -11 25 -1 41 9 14 9 20 1 20 -8 0 -7 5
1 15 10 12 10 19 2 27 -7 7 -12 15 -12 18 0 11 75 9 88 -3 10 -8 23 0 55 32
27 26 38 44 31 49 -6 4 -10 32 -9 67 2 76 -5 86 -60 80 -27 -4 -46 -1 -50 6
-6 8 -10 7 -16 -2 -7 -12 -12 -12 -30 -1 -19 12 -23 11 -36 -8 l-15 -21 -25
23 c-20 19 -25 20 -33 8 -7 -12 -14 -12 -27 -4 -14 9 -21 6 -37 -14 -11 -14
-21 -33 -21 -44 -1 -10 -5 -21 -8 -24 -8 -9 -37 15 -37 30 0 16 -49 60 -68 61
-10 1 -27 -10 -38 -25z m296 -64 c0 -3 -4 -8 -10 -11 -5 -3 -10 -1 -10 4 0 6
5 11 10 11 6 0 10 -2 10 -4z m140 -30 c0 -11 -19 -15 -25 -6 -3 5 1 10 9 10 9
0 16 -2 16 -4z m-335 -46 c3 -5 -1 -10 -9 -10 -9 0 -16 5 -16 10 0 6 4 10 9
10 6 0 13 -4 16 -10z m175 -20 c0 -5 -4 -10 -10 -10 -5 0 -10 5 -10 10 0 6 5
10 10 10 6 0 10 -4 10 -10z m-50 -51 c0 -6 -4 -7 -10 -4 -5 3 -10 11 -10 16 0
6 5 7 10 4 6 -3 10 -11 10 -16z m40 -69 c0 -5 -4 -10 -10 -10 -5 0 -10 5 -10
10 0 6 5 10 10 10 6 0 10 -4 10 -10z m-30 -65 c0 -8 -4 -15 -10 -15 -5 0 -10
7 -10 15 0 8 5 15 10 15 6 0 10 -7 10 -15z m10 -48 c0 -7 -9 -13 -20 -14 -20
-2 -26 8 -13 20 11 12 33 8 33 -6z m0 -87 c0 -5 -4 -10 -10 -10 -5 0 -10 5
-10 10 0 6 5 10 10 10 6 0 10 -4 10 -10z m-3 -42 c-3 -8 -6 -5 -6 6 -1 11 2
17 5 13 3 -3 4 -12 1 -19z m-17 -108 c0 -5 -2 -10 -4 -10 -3 0 -8 5 -11 10 -3
6 -1 10 4 10 6 0 11 -4 11 -10z"/>
<path d="M2889 731 c12 -16 21 -33 21 -38 0 -16 39 -47 48 -38 4 4 1 10 -5 12
-7 3 -21 21 -30 41 -17 37 -30 52 -46 52 -5 0 1 -13 12 -29z"/>
<path d="M1513 709 c-16 -17 -36 -22 -84 -24 -35 -1 -67 -3 -70 -4 -6 -1 -32
-54 -35 -71 0 -3 -4 -13 -8 -23 -5 -10 -3 -23 3 -31 6 -7 8 -16 4 -19 -3 -4 0
-14 7 -22 11 -13 11 -20 0 -41 -10 -17 -11 -27 -3 -35 8 -8 7 -18 -3 -37 -10
-20 -11 -29 -1 -41 7 -8 12 -41 12 -73 0 -54 2 -61 28 -76 24 -15 29 -15 37
-2 7 12 12 12 22 2 38 -38 70 25 73 146 2 66 -1 91 -13 104 -12 14 -12 20 -2
33 9 11 10 18 1 28 -8 11 -6 18 8 31 17 15 20 15 42 -3 13 -11 20 -20 15 -21
-5 0 -3 -6 3 -14 8 -10 9 -16 1 -21 -6 -4 2 -16 19 -31 23 -19 36 -23 58 -18
35 8 63 32 63 54 0 9 5 21 10 26 12 12 1 37 -40 94 -14 19 -23 37 -22 40 4 5
-10 14 -38 24 -19 8 -53 29 -60 38 -3 4 -15 -2 -27 -13z m-13 -89 c0 -5 -5
-10 -11 -10 -5 0 -7 5 -4 10 3 6 8 10 11 10 2 0 4 -4 4 -10z m130 -60 c0 -5
-4 -10 -10 -10 -5 0 -10 5 -10 10 0 6 5 10 10 10 6 0 10 -4 10 -10z m-210 -80
c0 -5 -5 -10 -11 -10 -5 0 -7 5 -4 10 3 6 8 10 11 10 2 0 4 -4 4 -10z"/>
<path d="M1885 694 c-12 -9 -31 -12 -53 -8 -29 6 -38 2 -68 -27 -36 -35 -46
-83 -22 -107 9 -9 9 -15 0 -24 -16 -16 -15 -45 1 -51 10 -3 10 -9 0 -26 -16
-26 -17 -53 -1 -69 8 -8 8 -15 -2 -27 -9 -11 -10 -18 -1 -29 8 -10 9 -16 1
-21 -15 -9 -12 -51 5 -65 9 -7 36 -14 60 -15 37 -1 50 4 72 27 17 18 24 32 17
36 -21 14 -25 45 -8 63 14 15 14 21 4 34 -10 12 -10 18 -1 29 9 11 9 19 -1 35
-10 16 -10 23 0 33 6 6 12 27 12 45 0 26 4 33 20 33 13 0 22 -9 26 -27 9 -37
63 -93 90 -93 12 0 34 10 50 22 16 12 31 23 33 25 2 1 -2 9 -8 17 -8 10 -9 16
-1 21 15 9 12 41 -6 56 -9 7 -23 29 -32 48 -9 20 -28 41 -40 47 -13 6 -29 17
-35 23 -14 14 -67 14 -67 0 0 -8 -4 -8 -13 -1 -8 7 -18 6 -32 -4z m140 -75
c-10 -15 -25 -10 -19 6 4 8 10 12 15 9 5 -3 7 -10 4 -15z"/>
<path d="M2256 695 c-3 -8 -11 -15 -19 -15 -18 0 -77 -62 -77 -81 0 -8 -5 -20
-12 -27 -9 -9 -6 -19 16 -41 18 -19 26 -36 22 -46 -3 -9 -10 -14 -14 -11 -5 3
-23 -9 -40 -27 -25 -26 -30 -38 -27 -66 3 -19 0 -40 -6 -48 -8 -9 -3 -20 20
-44 17 -17 31 -27 31 -23 0 5 5 3 12 -4 8 -8 15 -9 25 0 10 8 19 5 39 -13 21
-19 28 -21 44 -12 14 10 21 9 30 -2 7 -8 18 -15 25 -15 7 0 18 -7 26 -16 8
-10 21 -13 37 -9 16 4 31 0 44 -11 18 -17 20 -17 45 9 l27 26 -22 24 c-17 18
-19 26 -10 35 19 19 19 242 0 264 -12 14 -12 21 -2 33 8 10 9 15 1 15 -6 0
-11 6 -11 13 0 16 -76 92 -93 92 -7 1 -20 5 -30 9 -10 5 -23 4 -31 -3 -10 -8
-16 -9 -21 -1 -9 14 -22 12 -29 -5z m84 -155 c24 -24 25 -43 6 -59 -10 -8 -16
-9 -21 -1 -3 5 -26 10 -51 10 -24 0 -44 4 -44 9 0 13 62 61 78 61 6 0 21 -9
32 -20z m0 -114 c0 -2 -7 -7 -16 -10 -8 -3 -12 -2 -9 4 6 10 25 14 25 6z m-42
-48 c8 -8 15 -8 26 2 13 10 17 9 22 -4 14 -37 -55 -58 -109 -33 -31 14 -30 33
1 29 11 -2 23 2 27 8 8 13 18 13 33 -2z m-122 -35 c-10 -10 -19 5 -10 18 6 11
8 11 12 0 2 -7 1 -15 -2 -18z"/>
<path d="M2605 700 c-3 -5 -14 -10 -24 -10 -10 0 -25 -8 -33 -17 -18 -20 -21
-75 -5 -84 6 -4 7 -15 2 -25 -12 -28 -12 -38 -2 -52 7 -8 6 -21 -3 -37 -10
-18 -10 -28 -2 -38 8 -9 8 -17 1 -24 -8 -8 -7 -17 3 -32 10 -16 10 -25 1 -40
-10 -15 -8 -22 7 -39 16 -17 17 -22 5 -32 -19 -16 -9 -37 28 -55 31 -16 31
-15 76 29 42 42 44 47 32 72 -8 19 -9 30 -1 38 14 14 13 43 -2 49 -10 3 -10 9
0 26 15 26 16 53 0 69 -8 8 -8 15 2 26 7 9 10 22 7 30 -4 9 3 16 19 20 32 8
43 1 37 -25 -4 -15 6 -32 38 -65 49 -50 68 -54 102 -21 36 34 38 52 12 104
-29 59 -127 147 -144 130 -8 -8 -11 -8 -11 1 0 16 -25 15 -50 0 -16 -10 -24
-10 -40 0 -24 15 -47 16 -55 2z m25 -70 c0 -5 -2 -10 -4 -10 -3 0 -8 5 -11 10
-3 6 -1 10 4 10 6 0 11 -4 11 -10z m200 -24 c0 -15 -38 -29 -53 -19 -5 3 2 11
15 18 31 17 38 18 38 1z m36 -40 c9 -20 9 -25 -6 -29 -9 -2 -17 1 -17 7 0 6
-4 19 -8 29 -11 27 18 21 31 -7z m-36 -21 c0 -28 -15 -34 -24 -9 -10 25 -7 34
9 34 9 0 15 -9 15 -25z m-200 -175 c0 -5 -4 -10 -10 -10 -5 0 -10 5 -10 10 0
6 5 10 10 10 6 0 10 -4 10 -10z"/>
<path d="M1030 682 c-24 -7 -100 -85 -100 -102 0 -8 -7 -28 -16 -45 -9 -16
-17 -58 -19 -93 -3 -58 -1 -66 26 -96 30 -35 37 -56 17 -56 -6 0 -3 -9 7 -20
10 -11 24 -20 30 -20 7 0 18 -7 25 -15 7 -8 17 -12 22 -9 5 3 18 -2 28 -11 16
-14 23 -15 34 -6 10 8 16 9 21 1 12 -20 51 -10 80 20 16 17 35 28 42 26 7 -3
21 7 30 22 10 15 23 33 30 40 7 7 13 17 13 21 0 13 -35 41 -51 41 -8 0 -20 5
-27 12 -9 9 -15 9 -24 0 -7 -7 -19 -12 -28 -12 -9 0 -27 -11 -40 -25 -13 -14
-26 -22 -29 -18 -3 5 -15 13 -26 19 -11 6 -21 23 -23 38 -3 22 0 26 22 26 14
0 26 5 26 11 0 8 5 8 15 -1 12 -10 18 -10 29 -1 10 8 16 9 21 1 8 -13 45 -13
45 0 0 6 9 10 20 10 11 0 20 5 20 11 0 5 4 8 9 4 5 -3 16 8 24 25 9 18 12 32
6 36 -5 3 -7 14 -4 23 3 11 -3 25 -15 36 -11 10 -20 24 -20 31 0 7 -15 22 -34
34 -19 11 -36 25 -38 31 -4 11 -121 19 -148 11z m19 -66 c18 -20 20 -24 7 -29
-18 -7 -46 17 -46 39 0 21 13 17 39 -10z m101 2 c0 -5 -7 -8 -15 -4 -8 3 -15
1 -15 -5 0 -6 -5 -7 -12 -3 -8 5 -6 11 7 20 19 14 35 10 35 -8z m44 -20 c-3
-5 -12 -8 -20 -8 -8 0 -14 -4 -14 -10 0 -14 37 -12 43 3 4 9 6 9 6 0 1 -7 -8
-17 -20 -23 -17 -9 -23 -8 -34 7 -10 13 -10 20 -2 25 7 4 13 13 13 20 1 7 2
17 3 22 0 6 7 1 15 -9 8 -11 12 -23 10 -27z m-190 -67 c-7 -8 -35 9 -29 19 4
6 11 5 20 -3 7 -6 11 -14 9 -16z m6 -35 c9 -12 8 -15 -8 -13 -12 0 -18 6 -15
14 6 16 8 16 23 -1z m146 -23 c-10 -10 -19 5 -10 18 6 11 8 11 12 0 2 -7 1
-15 -2 -18z m-86 7 c0 -5 -7 -10 -16 -10 -11 0 -14 -6 -8 -22 6 -21 6 -21 -11
-5 -14 14 -15 20 -5 32 14 17 40 20 40 5z m45 0 c3 -5 1 -10 -4 -10 -6 0 -11
5 -11 10 0 6 2 10 4 10 3 0 8 -4 11 -10z m-142 -25 c4 -8 2 -17 -3 -20 -6 -4
-10 3 -10 14 0 25 6 27 13 6z m57 -145 c0 -5 -4 -10 -10 -10 -5 0 -10 5 -10
10 0 6 5 10 10 10 6 0 10 -4 10 -10z m140 -20 c0 -5 -4 -10 -10 -10 -5 0 -10
5 -10 10 0 6 5 10 10 10 6 0 10 -4 10 -10z"/>
<path d="M3292 678 c-6 -6 -20 -15 -32 -22 -21 -10 -49 -72 -50 -105 0 -8 7
-22 16 -32 16 -18 12 -55 -4 -45 -16 10 -59 -48 -65 -86 -3 -21 -2 -38 3 -38
5 0 7 -7 4 -15 -9 -23 11 -41 80 -75 68 -32 86 -36 86 -18 0 6 7 4 18 -5 10
-10 23 -17 29 -17 5 0 18 -9 28 -20 13 -15 21 -17 31 -9 9 7 20 6 38 -6 24
-16 28 -16 51 -1 28 18 30 27 13 44 -10 10 -10 17 1 34 11 17 11 22 -1 29 -11
7 -11 12 0 30 10 15 11 24 3 32 -7 7 -7 15 2 25 9 12 9 16 0 19 -7 3 -13 17
-13 32 0 15 -5 32 -12 39 -8 8 -8 15 2 27 11 13 10 19 -5 35 -14 15 -16 23 -7
32 13 13 0 37 -46 85 -30 30 -40 34 -96 38 -36 2 -68 -1 -74 -7z m118 -64 c0
-2 -12 -4 -27 -4 -21 0 -24 3 -14 9 13 8 41 5 41 -5z m-80 -6 c0 -7 -11 -18
-25 -25 -29 -13 -32 -7 -8 19 19 21 33 23 33 6z m120 -7 c0 -5 -9 -11 -21 -14
-16 -4 -18 -3 -8 9 13 16 29 19 29 5z m7 -37 c-3 -3 -12 -4 -19 -1 -8 3 -5 6
6 6 11 1 17 -2 13 -5z m-69 -16 c7 -7 12 -24 12 -39 0 -21 -6 -28 -25 -31 -14
-3 -28 -1 -31 3 -3 5 -14 9 -25 9 -26 0 -24 15 8 45 31 28 43 31 61 13z m10
-172 c7 -4 12 -10 12 -14 0 -10 -51 -32 -74 -32 -24 1 -56 22 -56 38 0 19 90
25 118 8z m72 -86 c0 -5 -4 -10 -10 -10 -5 0 -10 5 -10 10 0 6 5 10 10 10 6 0
10 -4 10 -10z"/>
<path d="M868 659 c-15 -15 -15 -19 -2 -30 12 -10 18 -9 32 4 14 15 14 19 2
31 -13 11 -18 10 -32 -5z"/>
<path d="M2962 630 c-23 -22 -28 -45 -12 -55 14 -9 13 -68 -2 -83 -9 -9 -9
-17 2 -36 10 -20 10 -28 1 -40 -10 -11 -9 -19 1 -35 11 -17 10 -25 -1 -42 -11
-18 -11 -26 0 -48 43 -87 87 -93 148 -21 37 44 40 52 29 70 -10 16 -10 24 0
40 15 25 15 47 0 53 -10 3 -10 9 0 26 10 18 10 26 1 37 -9 11 -9 17 1 29 9 10
9 15 1 15 -6 0 -11 10 -11 23 0 13 -10 37 -23 54 -18 25 -25 28 -41 19 -14 -8
-20 -8 -23 2 -7 19 -47 14 -71 -8z m68 -50 c21 -21 27 -50 10 -50 -5 0 -10 9
-10 20 0 11 -7 23 -15 26 -8 4 -15 10 -15 15 0 14 8 11 30 -11z m50 0 c0 -5
-4 -10 -9 -10 -6 0 -13 5 -16 10 -3 6 1 10 9 10 9 0 16 -4 16 -10z m0 -30 c0
-5 -5 -10 -11 -10 -5 0 -7 5 -4 10 3 6 8 10 11 10 2 0 4 -4 4 -10z m-50 -54
c0 -8 -8 -14 -19 -13 -11 0 -17 6 -14 14 7 18 33 17 33 -1z m50 -17 c0 -5 -7
-9 -15 -9 -21 0 -19 -12 7 -45 13 -16 16 -26 8 -23 -7 2 -18 13 -24 24 -6 10
-15 22 -21 27 -6 4 -3 11 7 17 11 7 15 17 11 28 -6 15 -5 15 10 3 9 -7 17 -17
17 -22z m-50 -69 c0 -5 -5 -10 -11 -10 -5 0 -7 5 -4 10 3 6 8 10 11 10 2 0 4
-4 4 -10z m-3 -47 c-3 -3 -11 -2 -17 2 -9 6 -9 10 1 16 14 8 27 -7 16 -18z
m49 -16 c18 -10 18 -37 0 -37 -8 0 -17 -6 -19 -12 -3 -8 -6 -6 -6 5 -1 9 6 17
14 17 8 0 15 5 15 10 0 6 -6 10 -14 10 -8 0 -18 -4 -21 -10 -3 -5 -11 -10 -17
-10 -6 0 -4 8 5 18 10 10 18 27 18 38 1 18 2 18 6 -1 3 -11 11 -24 19 -28z
m-46 -61 c0 -3 -4 -8 -10 -11 -5 -3 -10 -1 -10 4 0 6 5 11 10 11 6 0 10 -2 10
-4z"/>
<path d="M2775 400 c-8 -12 41 -44 55 -35 8 5 6 13 -6 26 -19 21 -39 25 -49 9z"/>
<path d="M1986 351 c-17 -19 -7 -39 14 -26 6 3 10 1 10 -4 0 -14 27 -14 35 0
7 10 -21 49 -35 49 -4 0 -15 -9 -24 -19z"/>
</g>
</svg>
